<svg width="25" height="18" viewBox="0 0 25 18" fill="none" xmlns="http://www.w3.org/2000/svg">
<path d="M0.238126 0.962643C0.378219 0.939668 0.561859 0.911939 0.701422 0.896394C0.745162 0.891451 0.723013 0.900582 0.753207 0.8978C0.81226 0.892605 0.867275 0.882082 0.925632 0.878032C0.944971 0.876833 0.920898 0.891766 0.941176 0.890446C1.0523 0.883698 1.15743 0.869211 1.27 0.860666C1.8245 0.821121 2.36955 0.790238 2.93083 0.766301C3.1159 0.757859 3.34087 0.779489 3.53203 0.75293C3.55434 0.749701 3.54104 0.714607 3.54528 0.711391C3.61188 0.661249 3.58974 0.735645 3.63321 0.742986C3.80578 0.771744 3.99767 0.768199 4.16374 0.744084C4.2344 0.733715 4.16356 0.655552 4.2347 0.697535C4.23964 0.700416 4.22171 0.74533 4.24109 0.749102C4.28503 0.757654 4.36839 0.745938 4.40245 0.747956C4.46808 0.752202 4.47894 0.751335 4.54102 0.749176C4.62588 0.746489 4.72682 0.766281 4.81787 0.751842C4.83731 0.748542 4.81158 0.699721 4.84257 0.689714C4.87359 0.679682 4.95567 0.679819 4.98333 0.69064C5.01101 0.701442 4.99922 0.742384 5.00412 0.751429C5.04442 0.828496 5.13935 0.716238 5.15156 0.712521C5.37427 0.655733 5.56526 0.71225 5.77431 0.705485C5.93302 0.6997 6.10272 0.670336 6.25373 0.668105C6.43363 0.665671 6.58611 0.694503 6.76089 0.683651C6.77934 0.682541 6.75772 0.608758 6.78025 0.607128C7.0196 0.589821 7.25728 0.588846 7.4956 0.635623C7.5195 0.640421 7.4887 0.710769 7.51258 0.719827C7.65877 0.772834 7.89009 0.913667 7.97692 0.598276C8.07595 0.607902 8.19618 0.617436 8.28477 0.680114C8.34189 0.720547 8.28641 0.801629 8.35658 0.766414C8.37241 0.758542 8.35183 0.68853 8.37556 0.681955C8.47548 0.654175 8.58465 0.675253 8.6835 0.63641C8.70361 0.628321 8.69812 0.564166 8.70381 0.552462C8.75169 0.457345 8.8314 0.610846 8.84877 0.622077C8.98109 0.704334 9.07771 0.669811 9.20097 0.66989C9.22957 0.669971 9.19576 0.58202 9.22328 0.578838C9.36603 0.563442 9.5139 0.568155 9.65368 0.606049C9.68477 0.614708 9.65618 0.69196 9.67103 0.700063C9.73654 0.735053 9.75107 0.589311 9.81389 0.619876C9.82714 0.626156 9.81968 0.692425 9.8221 0.699661C9.85991 0.813439 9.89276 0.651307 9.90249 0.647532C10.0255 0.596861 10.1042 0.766115 10.223 0.741214C10.2372 0.738017 10.2052 0.653491 10.2451 0.649635C10.5114 0.623367 10.7931 0.643931 11.0566 0.711813C11.0976 0.722248 11.0684 0.787467 11.0709 0.795466C11.113 0.920679 11.1402 0.752608 11.1535 0.746177C11.2589 0.699981 11.3574 0.841176 11.429 0.639782C11.7873 0.694173 12.1442 0.631479 12.5 0.698463C12.5876 0.71497 12.6752 0.739358 12.7627 0.775279C12.7683 0.777384 12.7582 0.861126 12.7694 0.864964C12.9047 0.912053 12.8787 0.781866 12.9682 0.622999C12.9907 0.583136 13.0593 0.775231 13.0654 0.789283C13.0875 0.841142 13.0645 0.965503 13.0719 0.975547C13.1332 1.05435 13.1232 0.643096 13.2058 0.643264C13.2084 0.643956 13.1976 0.719561 13.2045 0.727099C13.226 0.750758 13.2474 0.720767 13.2685 0.746843C13.3167 0.807202 13.3339 1.00656 13.4076 0.890627C13.417 0.8756 13.4027 0.642934 13.4765 0.654256C13.5059 0.658944 13.6361 0.65559 13.6726 0.670802C13.709 0.685983 13.684 0.760526 13.6866 0.763778C13.7848 0.862806 13.7475 0.903574 13.7967 1.04954C13.8459 1.19481 13.8323 0.84825 13.8523 0.80966C13.8724 0.771193 13.9444 0.852642 13.9621 0.880836C13.9798 0.909068 13.9577 0.956256 13.9734 0.972225C14.0777 1.07642 14.0192 0.800846 14.0536 0.746202C14.1345 0.617106 14.1976 0.873038 14.2718 0.897998C14.2918 0.904786 14.2754 0.846738 14.2933 0.841379C14.3641 0.821007 14.4066 0.900319 14.4871 0.828098C14.5003 0.816249 14.5653 0.664671 14.6075 0.77647C14.6134 0.792565 14.5965 0.855437 14.6266 0.869641C14.6717 0.890965 14.7528 0.904857 14.8012 0.884103C14.837 0.868771 14.796 0.765502 14.841 0.797788C14.861 0.812179 14.8239 0.872264 14.8615 0.894207C14.8989 0.916122 14.9944 0.913713 15.0308 0.911763C15.0671 0.909756 15.0472 0.832111 15.0502 0.826887C15.0679 0.797015 15.1375 0.760234 15.1437 0.760398C15.4542 0.754288 15.7405 0.884222 16.0427 0.844206C16.0665 0.841238 16.0507 0.762641 16.0543 0.761379C16.1355 0.72947 16.0715 0.937236 16.1282 1.00696C16.12 0.848246 16.1535 0.87716 16.2107 0.86022C16.2382 0.851946 16.2232 0.790719 16.2257 0.784475C16.2666 0.692222 16.2951 0.812337 16.3024 0.836748C16.3295 0.926764 16.359 0.820953 16.3774 0.880989C16.3958 0.940411 16.3534 1.02843 16.4083 1.02723C16.4237 0.971362 16.3829 0.824799 16.4246 0.801523C16.5817 0.714269 16.8751 0.832015 17.0015 0.844069C17.1276 0.856797 17.1683 0.847376 17.2418 0.867308C17.3745 0.903102 17.3259 0.800058 17.4083 0.754915C17.491 0.710074 17.4508 0.95863 17.4627 1.01237C17.4743 1.06588 17.4871 1.01077 17.5016 1.04011C17.516 1.06938 17.4847 1.10593 17.5187 1.11665C17.5528 1.12716 17.6458 1.03217 17.6579 0.977237C17.6834 0.860544 17.6415 0.737435 17.7315 0.782036C17.7367 0.784651 17.7199 0.848609 17.7397 0.855333C17.8972 0.906347 18.0609 0.91062 18.2182 0.953404C18.2398 0.959338 18.2205 1.02767 18.233 1.03183C18.3642 1.07496 18.3173 0.96008 18.3892 0.834769C18.373 1.00262 18.4128 1.10539 18.5123 1.10502C18.5721 1.10502 18.5618 1.03293 18.6005 0.982355C18.6121 0.967188 18.6544 1.01632 18.6621 0.982744C18.6874 0.873323 18.6475 0.750204 18.7501 0.801083C18.7546 0.803459 18.7403 0.862703 18.7558 0.866532C18.8564 0.89127 18.8684 0.778848 18.9771 0.768483C19.0623 0.760523 19.2138 0.830804 19.3108 0.842867C19.3088 1.01374 19.4004 0.973907 19.4375 0.859043C19.5005 0.864867 19.5685 0.859734 19.6293 0.876397C19.6503 0.882058 19.6365 0.92914 19.6391 0.934302C19.6796 1.01457 19.707 0.90555 19.7206 0.901683C19.8679 0.86343 19.9878 0.944121 20.1284 0.870247C20.1334 0.867513 20.1415 0.762446 20.179 0.840264C20.1814 0.845502 20.135 0.89255 20.2011 0.897322C20.2673 0.902568 20.3919 0.958106 20.4837 0.912785C20.5059 0.901667 20.5621 0.82326 20.6072 0.88644C20.6132 0.894958 20.6067 0.922844 20.6153 0.93851C20.6434 0.988101 20.6587 0.890589 20.6916 0.973622C20.7246 1.05673 20.7931 1.11527 20.8857 1.05883C20.8886 1.05712 20.9106 0.982945 20.9397 0.984341C20.9862 0.986468 21.0521 1.00158 21.1007 1.00104C21.1239 1.00079 21.109 0.95677 21.1131 0.95597C21.2693 0.933221 21.3805 0.973262 21.5478 0.98874C21.5785 0.991284 21.6667 0.939218 21.7261 0.98112C21.7913 1.02594 21.7243 1.21286 21.8742 1.1623C21.9346 1.14022 22.0112 0.920444 22.1198 1.03266C22.3306 1.00539 22.5255 1.05366 22.7368 1.01838C22.7463 1.01676 22.7763 0.969298 22.7987 0.970407C22.8318 0.971922 22.85 0.993531 22.8737 0.994917C22.973 1.00117 23.0638 0.984313 23.1594 0.987719C23.1958 0.988849 23.1831 1.00778 23.2264 1.0086C23.2697 1.0092 23.2986 0.985798 23.3572 0.997189C23.4016 1.006 23.4459 1.05009 23.5047 1.0527C23.5069 1.0105 23.5473 1.01087 23.6191 1.00039C23.6329 0.998409 23.6181 0.984824 23.6247 0.983226C23.6512 0.976682 23.6758 0.987895 23.701 0.980932C23.7072 0.979285 23.7075 0.966772 23.7125 0.9648C23.7552 0.948051 23.8254 0.977171 23.8375 0.981278C23.8838 0.998473 23.9054 0.984231 23.9409 0.990872C23.9763 0.997045 23.9233 1.00459 23.9647 1.00803C24.0505 1.0147 24.1608 1.01118 24.2479 1.01052C24.2826 1.01013 24.2589 1.00072 24.2639 1.00043C24.3358 0.998555 24.4085 1.00609 24.4483 0.991635C24.4982 1.0285 24.4917 0.988215 24.5944 0.996704C24.6025 0.997389 24.6128 1.00976 24.5818 1.01273C24.5507 1.01589 24.5036 1.01233 24.4605 1.01745C24.4502 1.01826 24.3918 1.03868 24.3838 1.04077C24.3213 1.05453 24.3124 1.02225 24.3091 1.0203C24.2716 1.00087 24.2001 1.02571 24.1813 1.02902C24.0952 1.04084 24.0221 1.03778 23.95 1.04814C23.9029 1.05495 23.8983 1.08967 23.8614 1.09157C23.7384 1.09911 23.6955 1.04218 23.5796 1.1004C23.5548 1.11312 23.5795 1.16033 23.4905 1.12896C23.4849 1.12739 23.4188 1.0942 23.3806 1.12081C23.3758 1.12423 23.376 1.13994 23.3696 1.14178C23.3273 1.15395 23.299 1.14334 23.2528 1.15334C23.2066 1.16341 23.1511 1.17847 23.0984 1.1769C23.0667 1.17614 23.0259 1.14442 23.0107 1.13655C22.9677 1.11385 22.9217 1.15867 22.8951 1.12877C22.8683 1.09781 22.9207 1.04811 22.8504 1.02829C22.8478 1.08115 22.8418 1.13577 22.8376 1.18956C22.6834 1.20033 22.5317 1.19236 22.3771 1.20544C22.3579 1.2072 22.3775 1.23978 22.3569 1.24274C22.2702 1.25552 22.1944 1.23592 22.1045 1.25293C22.0349 1.26624 21.9585 1.31302 21.8857 1.33042C21.8412 1.25034 21.7332 1.28612 21.6547 1.28412C21.6273 1.28328 21.6291 1.25918 21.6095 1.25255C21.5358 1.22781 21.5703 1.30617 21.5501 1.3204C21.4634 1.38248 21.4559 1.19686 21.3537 1.20544C21.3482 1.20551 21.282 1.31242 21.2729 1.31995C21.2149 1.36652 21.2633 1.28431 21.227 1.27883C21.1608 1.2688 21.1148 1.24506 21.037 1.28139C21.0144 1.29188 20.96 1.36488 20.916 1.31387C20.9102 1.30715 20.9134 1.26986 20.9088 1.26794C20.8244 1.23568 20.8222 1.35374 20.774 1.39802C20.7258 1.44259 20.6514 1.36456 20.6362 1.34067C20.5966 1.27969 20.6666 1.31198 20.6687 1.30565C20.694 1.2311 20.6397 1.24626 20.5982 1.24178C20.5922 1.12092 20.5341 1.12931 20.5552 1.23757C20.5575 1.24933 20.5898 1.23659 20.5982 1.24178C20.5617 1.362 20.498 1.38381 20.4275 1.27279C20.3946 1.22053 20.4257 1.15645 20.3256 1.18254C20.2801 1.19444 20.2977 1.28169 20.2576 1.30774C20.166 1.368 20.0469 1.29023 19.9524 1.30743C19.9181 1.31397 19.9515 1.3632 19.9281 1.36957C19.8659 1.38694 19.8111 1.35108 19.7486 1.37426C19.743 1.37646 19.7568 1.43035 19.7374 1.43222C19.5901 1.44771 19.4619 1.41905 19.3082 1.42588C19.2339 1.42917 19.1012 1.46886 19.0242 1.46648C18.8909 1.46306 18.7268 1.38071 18.6129 1.4071C18.5386 1.4244 18.5549 1.48681 18.5231 1.53156C18.4616 1.61899 18.3529 1.47383 18.3382 1.45032C18.3378 1.44952 18.4017 1.43172 18.3676 1.40013C18.3478 1.33206 18.339 1.44994 18.3382 1.45032C18.3286 1.43557 18.2009 1.4259 18.1755 1.43939C18.1618 1.44678 18.1695 1.50851 18.1623 1.51123C17.9915 1.57474 17.8204 1.60073 17.6472 1.57835C17.6442 1.57718 17.6487 1.50444 17.6416 1.50255C17.5413 1.47405 17.4771 1.56577 17.3944 1.62347C17.3117 1.681 17.2461 1.66679 17.1972 1.53981C17.1348 1.5585 17.0453 1.50456 16.9937 1.47102C16.9422 1.43745 16.935 1.58627 16.9305 1.58942C16.7891 1.68929 16.7074 1.60734 16.5608 1.59859C16.4911 1.5943 16.3527 1.62111 16.2772 1.64061C16.2176 1.65631 16.1816 1.62111 16.1267 1.6462C16.1192 1.64956 16.1267 1.71866 16.1245 1.72141C16.0631 1.80675 16.0926 1.63586 16.0799 1.60592C16.034 1.49697 16.0056 1.43829 15.9271 1.49236C15.9089 1.5046 15.8561 1.75311 15.8231 1.76894C15.7802 1.78886 15.7964 1.69939 15.7514 1.72239C15.7475 1.72428 15.7483 1.7792 15.7206 1.77774C15.5917 1.77169 15.4513 1.74369 15.3174 1.75306C15.2991 1.75415 15.3225 1.84218 15.2961 1.84528C15.1721 1.85974 15.0362 1.86072 14.9154 1.82179C14.8857 1.81192 14.9043 1.74839 14.8978 1.72984C14.8582 1.61739 14.802 1.78338 14.7928 1.78685C14.5716 1.87192 14.4023 1.72481 14.1769 1.80066C14.1646 1.80501 14.0701 1.98704 14.028 1.8331C14.0251 1.8229 13.9834 1.66507 13.9466 1.77395C13.9443 1.78077 13.9702 1.86198 13.9249 1.85438C13.8796 1.84676 13.8066 1.90258 13.7443 1.81342C13.7245 1.78538 13.6779 1.62697 13.6191 1.75431C13.6152 1.7631 13.5244 2.05118 13.4919 1.85351C13.4867 1.82096 13.4922 1.61123 13.4219 1.71936C13.4085 1.74034 13.4329 1.78691 13.3975 1.81648C13.3434 1.86207 13.2716 1.8064 13.205 1.9006C13.1934 1.91726 13.1439 2.0605 13.1043 1.95239C13.0981 1.93545 13.1099 1.8651 13.0889 1.85738C12.9893 1.82027 12.885 1.86782 12.7839 1.81943C12.7481 1.80242 12.7664 1.68856 12.7291 1.65813C12.6918 1.62772 12.6165 1.59847 12.5775 1.65052C12.5384 1.70259 12.5811 1.88404 12.5225 1.89859C12.515 1.90045 12.5075 1.90216 12.5 1.90374C12.2531 1.95545 12.0084 1.85366 11.7618 1.8367C11.7241 1.83408 11.7553 1.89905 11.6998 1.89977C11.495 1.90306 11.1414 1.95777 10.9637 1.81865C10.8214 1.70766 11.0005 1.62747 10.8917 1.58179C10.8392 1.56016 10.7824 1.76644 10.7698 1.77266C10.646 1.83652 10.5599 1.7434 10.4485 1.76914C10.4255 1.77445 10.448 1.85813 10.4284 1.86168C10.3615 1.8745 10.2912 1.83574 10.2273 1.84091C10.1986 1.84341 10.2039 1.90664 10.1775 1.90104C10.1144 1.88838 10.0586 1.86028 9.997 1.79987C9.99139 1.79439 10.0292 1.7173 9.9825 1.71328C9.9069 1.7069 9.81305 1.64717 9.72606 1.70427C9.70025 1.72147 9.69924 1.86307 9.64376 1.76363C9.63212 1.74284 9.64697 1.5736 9.58234 1.7184C9.57147 1.74272 9.46291 1.93575 9.40963 1.80722C9.39557 1.7734 9.3597 1.63485 9.32866 1.65561C9.32446 1.65892 9.34132 1.73448 9.3156 1.74096C9.22496 1.76246 9.12996 1.75122 9.03684 1.77101C9.01197 1.7764 9.04901 1.85444 9.01195 1.85991C8.91003 1.87499 8.78278 1.84982 8.68312 1.82189C8.64638 1.81144 8.67177 1.75031 8.6691 1.7434C8.62611 1.63162 8.60068 1.77915 8.58642 1.78705C8.49767 1.83469 8.43009 1.76233 8.34828 1.77687C8.32571 1.78064 8.34172 1.851 8.33722 1.857C8.29062 1.91517 8.32533 1.79206 8.29583 1.77691C8.21319 1.73413 8.12106 1.73565 8.03748 1.74029C8.00678 1.74208 8.04128 1.82299 8.01373 1.82357C7.85067 1.82839 7.68116 1.81046 7.52202 1.75916C7.49206 1.74937 7.51091 1.69171 7.50466 1.67795C7.46162 1.58211 7.39854 1.70655 7.38402 1.71758C7.31802 1.76886 7.29239 1.71598 7.2341 1.72215C6.94938 1.75225 6.59783 1.69451 6.32907 1.65734C5.97884 1.60806 5.70708 1.54307 5.3731 1.53142C5.35187 1.53056 5.37328 1.59487 5.35498 1.5948C5.11874 1.5903 4.88616 1.54734 4.64945 1.54282C4.63003 1.54226 4.65803 1.59828 4.62685 1.59896C4.5629 1.60067 4.48189 1.58923 4.41723 1.56634C4.38569 1.55534 4.42799 1.51545 4.39625 1.50549C4.32233 1.48236 4.2431 1.47213 4.16718 1.47308C4.13487 1.47351 4.18362 1.52824 4.14162 1.52462C3.85554 1.50139 3.57459 1.47457 3.2855 1.39112C3.26569 1.38529 3.2483 1.30076 3.20616 1.31325C3.20298 1.33572 3.20316 1.36245 3.20177 1.3866C2.78532 1.35541 2.37312 1.28458 1.95551 1.23691C1.9379 1.23477 1.96833 1.26636 1.93424 1.26208C1.73694 1.23797 1.54535 1.21713 1.34353 1.17225C1.32351 1.1679 1.33378 1.13464 1.27477 1.13402C1.26436 1.13396 1.17549 1.12928 1.15251 1.13315C1.14939 1.13374 1.1656 1.14978 1.13697 1.14666C0.970538 1.12833 0.796132 1.10233 0.629992 1.0776C0.603178 1.07365 0.631733 1.06871 0.612635 1.06602C0.477164 1.04847 0.32981 1.03645 0.200361 1.02012C0.113712 1.01013 0.145792 1.00965 0.0997479 1.0046C0.0932355 1.00397 0.03958 1.00154 0.0368053 1.00107C0.0296818 1.00008 0.0556709 0.997769 0.0450069 0.996502C0.0432669 0.996372 9.26989e-06 0.999991 0 0.999996C0 0.999996 0 0.999996 0 0.999996C2.73099e-06 0.999992 0.00376041 0.999687 0.0134402 0.998708C0.0164124 0.998468 0.0685102 0.993119 0.081342 0.991096C0.0902758 0.989688 0.0741767 0.990572 0.0924046 0.987707C0.110631 0.984642 0.130659 0.983426 0.160879 0.978534C0.191084 0.973371 0.177803 0.972481 0.238126 0.962643ZM16.7618 1.31914C16.7141 1.24769 16.7071 1.51298 16.7587 1.44814C16.7612 1.44469 16.7643 1.32263 16.7618 1.31914ZM22.5326 1.11168C22.4702 1.06636 22.4276 1.13883 22.4716 1.17375C22.5155 1.20746 22.5516 1.12484 22.5326 1.11168ZM23.1792 1.05876C23.1063 1.03169 23.0948 1.15135 23.1729 1.12246C23.1774 1.1208 23.1835 1.06025 23.1792 1.05876ZM0.313276 1.0123C0.312618 1.01207 0.274048 1.01044 0.273126 1.01057C0.252589 1.01359 0.329712 1.01807 0.313276 1.0123ZM23.8208 1.02026C23.7981 1.01011 23.7326 1.02333 23.7608 1.03635C23.7836 1.04632 23.8492 1.03226 23.8208 1.02026ZM14.2738 1.04106C14.273 1.03669 14.2454 1.03278 14.2459 1.05748C14.2478 1.13704 14.2863 1.11448 14.2738 1.04106ZM24.9114 1.00152C24.7502 1.00669 24.6525 0.985766 24.828 0.994014C24.8598 0.994937 24.7595 0.995665 24.8 0.997597C24.874 0.999127 24.9231 0.997246 24.9986 0.999972C25.0123 0.999536 24.9205 1.00061 24.9111 1.00153C24.9112 1.00153 24.9113 1.00153 24.9114 1.00152ZM16.7343 1.00165C16.7334 0.998152 16.6951 0.994816 16.6942 0.998295C16.6735 1.08266 16.7506 1.08901 16.7343 1.00165ZM12.6602 0.85699C12.6581 0.848561 12.5693 0.840659 12.5664 0.848426C12.5201 1.0037 12.6996 1.02009 12.6602 0.85699ZM19.3123 0.847445C19.3541 0.781049 19.404 0.775359 19.4373 0.858955C19.3958 0.853791 19.3541 0.85236 19.3123 0.847445Z" fill="black"/>
<path d="M0.238126 8.96265C0.378219 8.93967 0.561859 8.91194 0.701422 8.8964C0.745162 8.89145 0.723013 8.90059 0.753207 8.8978C0.81226 8.89261 0.867275 8.88209 0.925632 8.87804C0.944971 8.87684 0.920898 8.89177 0.941176 8.89045C1.0523 8.8837 1.15743 8.86921 1.27 8.86067C1.8245 8.82113 2.36955 8.79024 2.93083 8.7663C3.1159 8.75786 3.34087 8.77949 3.53203 8.75293C3.55434 8.7497 3.54104 8.71461 3.54528 8.71139C3.61188 8.66125 3.58974 8.73565 3.63321 8.74299C3.80578 8.77175 3.99767 8.7682 4.16374 8.74409C4.2344 8.73372 4.16356 8.65556 4.2347 8.69754C4.23964 8.70042 4.22171 8.74533 4.24109 8.74911C4.28503 8.75766 4.36839 8.74594 4.40245 8.74796C4.46808 8.75221 4.47894 8.75134 4.54102 8.74918C4.62588 8.74649 4.72682 8.76628 4.81787 8.75185C4.83731 8.74855 4.81158 8.69973 4.84257 8.68972C4.87359 8.67969 4.95567 8.67982 4.98333 8.69064C5.01101 8.70145 4.99922 8.74239 5.00412 8.75143C5.04442 8.8285 5.13935 8.71624 5.15156 8.71252C5.37427 8.65574 5.56526 8.71225 5.77431 8.70549C5.93302 8.6997 6.10272 8.67034 6.25373 8.66811C6.43363 8.66567 6.58611 8.69451 6.76089 8.68366C6.77934 8.68254 6.75772 8.60876 6.78025 8.60713C7.0196 8.58982 7.25728 8.58885 7.4956 8.63563C7.5195 8.64042 7.4887 8.71077 7.51258 8.71983C7.65877 8.77284 7.89009 8.91367 7.97692 8.59828C8.07595 8.60791 8.19618 8.61744 8.28477 8.68012C8.34189 8.72055 8.28641 8.80163 8.35658 8.76642C8.37241 8.75855 8.35183 8.68853 8.37556 8.68196C8.47548 8.65418 8.58465 8.67526 8.6835 8.63641C8.70361 8.62832 8.69812 8.56417 8.70381 8.55247C8.75169 8.45735 8.8314 8.61085 8.84877 8.62208C8.98109 8.70434 9.07771 8.66981 9.20097 8.66989C9.22957 8.66997 9.19576 8.58202 9.22328 8.57884C9.36603 8.56345 9.5139 8.56816 9.65368 8.60605C9.68477 8.61471 9.65618 8.69196 9.67103 8.70007C9.73654 8.73506 9.75107 8.58931 9.81389 8.61988C9.82714 8.62616 9.81968 8.69243 9.8221 8.69966C9.85991 8.81344 9.89276 8.65131 9.90249 8.64754C10.0255 8.59686 10.1042 8.76612 10.223 8.74122C10.2372 8.73802 10.2052 8.6535 10.2451 8.64964C10.5114 8.62337 10.7931 8.64394 11.0566 8.71182C11.0976 8.72225 11.0684 8.78747 11.0709 8.79547C11.113 8.92068 11.1402 8.75261 11.1535 8.74618C11.2589 8.69999 11.3574 8.84118 11.429 8.63979C11.7873 8.69418 12.1442 8.63148 12.5 8.69847C12.5876 8.71497 12.6752 8.73936 12.7627 8.77528C12.7683 8.77739 12.7582 8.86113 12.7694 8.86497C12.9047 8.91206 12.8787 8.78187 12.9682 8.623C12.9907 8.58314 13.0593 8.77524 13.0654 8.78929C13.0875 8.84115 13.0645 8.96551 13.0719 8.97555C13.1332 9.05435 13.1232 8.6431 13.2058 8.64327C13.2084 8.64396 13.1976 8.71956 13.2045 8.7271C13.226 8.75076 13.2474 8.72077 13.2685 8.74685C13.3167 8.80721 13.3339 9.00656 13.4076 8.89063C13.417 8.8756 13.4027 8.64294 13.4765 8.65426C13.5059 8.65895 13.6361 8.65559 13.6726 8.67081C13.709 8.68599 13.684 8.76053 13.6866 8.76378C13.7848 8.86281 13.7475 8.90358 13.7967 9.04955C13.8459 9.19481 13.8323 8.84825 13.8523 8.80966C13.8724 8.7712 13.9444 8.85265 13.9621 8.88084C13.9798 8.90907 13.9577 8.95626 13.9734 8.97223C14.0777 9.07642 14.0192 8.80085 14.0536 8.74621C14.1345 8.61711 14.1976 8.87304 14.2718 8.898C14.2918 8.90479 14.2754 8.84674 14.2933 8.84138C14.3641 8.82101 14.4066 8.90032 14.4871 8.8281C14.5003 8.81625 14.5653 8.66467 14.6075 8.77647C14.6134 8.79257 14.5965 8.85544 14.6266 8.86964C14.6717 8.89097 14.7528 8.90486 14.8012 8.88411C14.837 8.86878 14.796 8.76551 14.841 8.79779C14.861 8.81218 14.8239 8.87227 14.8615 8.89421C14.8989 8.91613 14.9944 8.91372 15.0308 8.91177C15.0671 8.90976 15.0472 8.83212 15.0502 8.82689C15.0679 8.79702 15.1375 8.76024 15.1437 8.7604C15.4542 8.75429 15.7405 8.88423 16.0427 8.84421C16.0665 8.84124 16.0507 8.76264 16.0543 8.76138C16.1355 8.72947 16.0715 8.93724 16.1282 9.00696C16.12 8.84825 16.1535 8.87716 16.2107 8.86022C16.2382 8.85195 16.2232 8.79072 16.2257 8.78448C16.2666 8.69223 16.2951 8.81234 16.3024 8.83675C16.3295 8.92677 16.359 8.82096 16.3774 8.88099C16.3958 8.94041 16.3534 9.02843 16.4083 9.02724C16.4237 8.97137 16.3829 8.8248 16.4246 8.80153C16.5817 8.71427 16.8751 8.83202 17.0015 8.84407C17.1276 8.8568 17.1683 8.84738 17.2418 8.86731C17.3745 8.90311 17.3259 8.80006 17.4083 8.75492C17.491 8.71008 17.4508 8.95863 17.4627 9.01237C17.4743 9.06588 17.4871 9.01077 17.5016 9.04012C17.516 9.06938 17.4847 9.10593 17.5187 9.11666C17.5528 9.12717 17.6458 9.03218 17.6579 8.97724C17.6834 8.86055 17.6415 8.73744 17.7315 8.78204C17.7367 8.78465 17.7199 8.84861 17.7397 8.85534C17.8972 8.90635 18.0609 8.91062 18.2182 8.95341C18.2398 8.95934 18.2205 9.02768 18.233 9.03184C18.3642 9.07497 18.3173 8.96008 18.3892 8.83477C18.373 9.00262 18.4128 9.1054 18.5123 9.10502C18.5721 9.10502 18.5618 9.03294 18.6005 8.98236C18.6121 8.96719 18.6544 9.01632 18.6621 8.98275C18.6874 8.87333 18.6475 8.75021 18.7501 8.80109C18.7546 8.80346 18.7403 8.86271 18.7558 8.86654C18.8564 8.89127 18.8684 8.77885 18.9771 8.76849C19.0623 8.76053 19.2138 8.83081 19.3108 8.84287C19.3088 9.01375 19.4004 8.97391 19.4375 8.85905C19.5005 8.86487 19.5685 8.85974 19.6293 8.8764C19.6503 8.88206 19.6365 8.92914 19.6391 8.93431C19.6796 9.01457 19.707 8.90555 19.7206 8.90169C19.8679 8.86343 19.9878 8.94413 20.1284 8.87025C20.1334 8.86752 20.1415 8.76245 20.179 8.84027C20.1814 8.84551 20.135 8.89255 20.2011 8.89733C20.2673 8.90257 20.3919 8.95811 20.4837 8.91279C20.5059 8.90167 20.5621 8.82326 20.6072 8.88644C20.6132 8.89496 20.6067 8.92285 20.6153 8.93851C20.6434 8.9881 20.6587 8.89059 20.6916 8.97363C20.7246 9.05674 20.7931 9.11528 20.8857 9.05883C20.8886 9.05713 20.9106 8.98295 20.9397 8.98434C20.9862 8.98647 21.0521 9.00159 21.1007 9.00105C21.1239 9.00079 21.109 8.95677 21.1131 8.95597C21.2693 8.93323 21.3805 8.97327 21.5478 8.98874C21.5785 8.99129 21.6667 8.93922 21.7261 8.98112C21.7913 9.02594 21.7243 9.21287 21.8742 9.1623C21.9346 9.14023 22.0112 8.92045 22.1198 9.03267C22.3306 9.00539 22.5255 9.05366 22.7368 9.01839C22.7463 9.01676 22.7763 8.9693 22.7987 8.97041C22.8318 8.97193 22.85 8.99353 22.8737 8.99492C22.973 9.00117 23.0638 8.98432 23.1594 8.98772C23.1958 8.98885 23.1831 9.00778 23.2264 9.0086C23.2697 9.0092 23.2986 8.9858 23.3572 8.99719C23.4016 9.006 23.4459 9.0501 23.5047 9.0527C23.5069 9.01051 23.5473 9.01087 23.6191 9.00039C23.6329 8.99841 23.6181 8.98483 23.6247 8.98323C23.6512 8.97669 23.6758 8.9879 23.701 8.98094C23.7072 8.97929 23.7075 8.96678 23.7125 8.9648C23.7552 8.94805 23.8254 8.97717 23.8375 8.98128C23.8838 8.99848 23.9054 8.98423 23.9409 8.99088C23.9763 8.99705 23.9233 9.00459 23.9647 9.00803C24.0505 9.0147 24.1608 9.01118 24.2479 9.01052C24.2826 9.01014 24.2589 9.00073 24.2639 9.00044C24.3358 8.99856 24.4085 9.00609 24.4483 8.99164C24.4982 9.02851 24.4917 8.98822 24.5944 8.99671C24.6025 8.99739 24.6128 9.00977 24.5818 9.01274C24.5507 9.01589 24.5036 9.01233 24.4605 9.01745C24.4502 9.01826 24.3918 9.03868 24.3838 9.04077C24.3213 9.05453 24.3124 9.02225 24.3091 9.0203C24.2716 9.00087 24.2001 9.02571 24.1813 9.02902C24.0952 9.04084 24.0221 9.03778 23.95 9.04814C23.9029 9.05496 23.8983 9.08967 23.8614 9.09158C23.7384 9.09912 23.6955 9.04218 23.5796 9.10041C23.5548 9.11313 23.5795 9.16033 23.4905 9.12897C23.4849 9.1274 23.4188 9.09421 23.3806 9.12081C23.3758 9.12423 23.376 9.13995 23.3696 9.14179C23.3273 9.15396 23.299 9.14335 23.2528 9.15335C23.2066 9.16341 23.1511 9.17848 23.0984 9.17691C23.0667 9.17614 23.0259 9.14443 23.0107 9.13655C22.9677 9.11385 22.9217 9.15868 22.8951 9.12878C22.8683 9.09781 22.9207 9.04811 22.8504 9.0283C22.8478 9.08116 22.8418 9.13577 22.8376 9.18956C22.6834 9.20034 22.5317 9.19236 22.3771 9.20544C22.3579 9.2072 22.3775 9.23978 22.3569 9.24275C22.2702 9.25553 22.1944 9.23592 22.1045 9.25293C22.0349 9.26624 21.9585 9.31303 21.8857 9.33042C21.8412 9.25034 21.7332 9.28612 21.6547 9.28412C21.6273 9.28329 21.6291 9.25918 21.6095 9.25256C21.5358 9.22781 21.5703 9.30617 21.5501 9.3204C21.4634 9.38249 21.4559 9.19686 21.3537 9.20544C21.3482 9.20551 21.282 9.31243 21.2729 9.31995C21.2149 9.36653 21.2633 9.28432 21.227 9.27883C21.1608 9.26881 21.1148 9.24506 21.037 9.28139C21.0144 9.29188 20.96 9.36488 20.916 9.31387C20.9102 9.30715 20.9134 9.26987 20.9088 9.26794C20.8244 9.23569 20.8222 9.35374 20.774 9.39803C20.7258 9.44259 20.6514 9.36457 20.6362 9.34067C20.5966 9.27969 20.6666 9.31198 20.6687 9.30565C20.694 9.2311 20.6397 9.24627 20.5982 9.24178C20.5922 9.12092 20.5341 9.12931 20.5552 9.23757C20.5575 9.24934 20.5898 9.23659 20.5982 9.24178C20.5617 9.36201 20.498 9.38381 20.4275 9.27279C20.3946 9.22053 20.4257 9.15646 20.3256 9.18255C20.2801 9.19444 20.2977 9.2817 20.2576 9.30775C20.166 9.368 20.0469 9.29023 19.9524 9.30743C19.9181 9.31397 19.9515 9.3632 19.9281 9.36957C19.8659 9.38695 19.8111 9.35109 19.7486 9.37426C19.743 9.37647 19.7568 9.43036 19.7374 9.43222C19.5901 9.44771 19.4619 9.41905 19.3082 9.42588C19.2339 9.42917 19.1012 9.46887 19.0242 9.46649C18.8909 9.46306 18.7268 9.38071 18.6129 9.40711C18.5386 9.4244 18.5549 9.48681 18.5231 9.53156C18.4616 9.619 18.3529 9.47383 18.3382 9.45032C18.3378 9.44952 18.4017 9.43172 18.3676 9.40013C18.3478 9.33206 18.339 9.44995 18.3382 9.45032C18.3286 9.43557 18.2009 9.42591 18.1755 9.43939C18.1618 9.44679 18.1695 9.50852 18.1623 9.51124C17.9915 9.57475 17.8204 9.60073 17.6472 9.57836C17.6442 9.57718 17.6487 9.50444 17.6416 9.50255C17.5413 9.47406 17.4771 9.56578 17.3944 9.62347C17.3117 9.68101 17.2461 9.66679 17.1972 9.53982C17.1348 9.5585 17.0453 9.50457 16.9937 9.47102C16.9422 9.43745 16.935 9.58627 16.9305 9.58942C16.7891 9.68929 16.7074 9.60735 16.5608 9.5986C16.4911 9.5943 16.3527 9.62111 16.2772 9.64062C16.2176 9.65631 16.1816 9.62112 16.1267 9.64621C16.1192 9.64957 16.1267 9.71866 16.1245 9.72141C16.0631 9.80675 16.0926 9.63586 16.0799 9.60593C16.034 9.49697 16.0056 9.43829 15.9271 9.49237C15.9089 9.5046 15.8561 9.75311 15.8231 9.76895C15.7802 9.78886 15.7964 9.6994 15.7514 9.72239C15.7475 9.72428 15.7483 9.7792 15.7206 9.77774C15.5917 9.7717 15.4513 9.74369 15.3174 9.75307C15.2991 9.75415 15.3225 9.84219 15.2961 9.84528C15.1721 9.85975 15.0362 9.86073 14.9154 9.8218C14.8857 9.81192 14.9043 9.7484 14.8978 9.72984C14.8582 9.61739 14.802 9.78338 14.7928 9.78685C14.5716 9.87193 14.4023 9.72482 14.1769 9.80067C14.1646 9.80502 14.0701 9.98705 14.028 9.8331C14.0251 9.8229 13.9834 9.66507 13.9466 9.77395C13.9443 9.78078 13.9702 9.86198 13.9249 9.85439C13.8796 9.84676 13.8066 9.90258 13.7443 9.81343C13.7245 9.78539 13.6779 9.62698 13.6191 9.75432C13.6152 9.76311 13.5244 10.0512 13.4919 9.85351C13.4867 9.82096 13.4922 9.61124 13.4219 9.71937C13.4085 9.74034 13.4329 9.78692 13.3975 9.81648C13.3434 9.86208 13.2716 9.80641 13.205 9.9006C13.1934 9.91726 13.1439 10.0605 13.1043 9.95239C13.0981 9.93545 13.1099 9.86511 13.0889 9.85738C12.9893 9.82028 12.885 9.86783 12.7839 9.81943C12.7481 9.80242 12.7664 9.68856 12.7291 9.65814C12.6918 9.62772 12.6165 9.59847 12.5775 9.65052C12.5384 9.7026 12.5811 9.88404 12.5225 9.89859C12.515 9.90045 12.5075 9.90217 12.5 9.90374C12.2531 9.95545 12.0084 9.85366 11.7618 9.8367C11.7241 9.83408 11.7553 9.89905 11.6998 9.89977C11.495 9.90306 11.1414 9.95778 10.9637 9.81865C10.8214 9.70766 11.0005 9.62748 10.8917 9.58179C10.8392 9.56016 10.7824 9.76644 10.7698 9.77266C10.646 9.83652 10.5599 9.74341 10.4485 9.76915C10.4255 9.77445 10.448 9.85813 10.4284 9.86169C10.3615 9.8745 10.2912 9.83575 10.2273 9.84091C10.1986 9.84341 10.2039 9.90665 10.1775 9.90104C10.1144 9.88838 10.0586 9.86028 9.997 9.79987C9.99139 9.7944 10.0292 9.71731 9.9825 9.71329C9.9069 9.70691 9.81305 9.64717 9.72606 9.70428C9.70025 9.72148 9.69924 9.86308 9.64376 9.76363C9.63212 9.74284 9.64697 9.57361 9.58234 9.7184C9.57147 9.74272 9.46291 9.93575 9.40963 9.80722C9.39557 9.77341 9.3597 9.63485 9.32866 9.65561C9.32446 9.65892 9.34132 9.73448 9.3156 9.74097C9.22496 9.76246 9.12996 9.75123 9.03684 9.77101C9.01197 9.7764 9.04901 9.85444 9.01195 9.85992C8.91003 9.87499 8.78278 9.84982 8.68312 9.82189C8.64638 9.81145 8.67177 9.75031 8.6691 9.74341C8.62611 9.63162 8.60068 9.77915 8.58642 9.78706C8.49767 9.8347 8.43009 9.76233 8.34828 9.77687C8.32571 9.78065 8.34172 9.85101 8.33722 9.857C8.29062 9.91518 8.32533 9.79207 8.29583 9.77692C8.21319 9.73414 8.12106 9.73565 8.03748 9.74029C8.00678 9.74208 8.04128 9.82299 8.01373 9.82358C7.85067 9.8284 7.68116 9.81046 7.52202 9.75916C7.49206 9.74938 7.51091 9.69171 7.50466 9.67795C7.46162 9.58211 7.39854 9.70655 7.38402 9.71758C7.31802 9.76887 7.29239 9.71598 7.2341 9.72215C6.94938 9.75226 6.59783 9.69451 6.32907 9.65734C5.97884 9.60806 5.70708 9.54307 5.3731 9.53143C5.35187 9.53057 5.37328 9.59487 5.35498 9.59481C5.11874 9.5903 4.88616 9.54734 4.64945 9.54282C4.63003 9.54226 4.65803 9.59829 4.62685 9.59896C4.5629 9.60067 4.48189 9.58924 4.41723 9.56634C4.38569 9.55535 4.42799 9.51545 4.39625 9.50549C4.32233 9.48236 4.2431 9.47213 4.16718 9.47309C4.13487 9.47352 4.18362 9.52825 4.14162 9.52462C3.85554 9.50139 3.57459 9.47457 3.2855 9.39112C3.26569 9.38529 3.2483 9.30077 3.20616 9.31325C3.20298 9.33572 3.20316 9.36246 3.20177 9.3866C2.78532 9.35541 2.37312 9.28458 1.95551 9.23691C1.9379 9.23478 1.96833 9.26637 1.93424 9.26209C1.73694 9.23797 1.54535 9.21713 1.34353 9.17226C1.32351 9.1679 1.33378 9.13464 1.27477 9.13403C1.26436 9.13396 1.17549 9.12928 1.15251 9.13316C1.14939 9.13375 1.1656 9.14978 1.13697 9.14666C0.970538 9.12833 0.796132 9.10233 0.629992 9.07761C0.603178 9.07366 0.631733 9.06871 0.612635 9.06602C0.477164 9.04848 0.32981 9.03645 0.200361 9.02013C0.113712 9.01014 0.145792 9.00965 0.0997479 9.00461C0.0932355 9.00398 0.03958 9.00154 0.0368053 9.00107C0.0296818 9.00008 0.0556709 8.99777 0.0450069 8.99651C0.0432669 8.99638 9.26989e-06 8.99999 0 9C0 9 0 9 0 9C2.73099e-06 9 0.00376041 8.99969 0.0134402 8.99871C0.0164124 8.99847 0.0685102 8.99312 0.081342 8.9911C0.0902758 8.98969 0.0741767 8.99058 0.0924046 8.98771C0.110631 8.98465 0.130659 8.98343 0.160879 8.97854C0.191084 8.97338 0.177803 8.97248 0.238126 8.96265ZM16.7618 9.31914C16.7141 9.2477 16.7071 9.51299 16.7587 9.44815C16.7612 9.4447 16.7643 9.32263 16.7618 9.31914ZM22.5326 9.11169C22.4702 9.06636 22.4276 9.13883 22.4716 9.17375C22.5155 9.20746 22.5516 9.12484 22.5326 9.11169ZM23.1792 9.05877C23.1063 9.03169 23.0948 9.15136 23.1729 9.12246C23.1774 9.1208 23.1835 9.06025 23.1792 9.05877ZM0.313276 9.0123C0.312618 9.01207 0.274048 9.01044 0.273126 9.01058C0.252589 9.01359 0.329712 9.01807 0.313276 9.0123ZM23.8208 9.02026C23.7981 9.01011 23.7326 9.02333 23.7608 9.03635C23.7836 9.04633 23.8492 9.03226 23.8208 9.02026ZM14.2738 9.04106C14.273 9.0367 14.2454 9.03278 14.2459 9.05749C14.2478 9.13705 14.2863 9.11448 14.2738 9.04106ZM24.9114 9.00153C24.7502 9.0067 24.6525 8.98577 24.828 8.99402C24.8598 8.99494 24.7595 8.99567 24.8 8.9976C24.874 8.99913 24.9231 8.99725 24.9986 8.99998C25.0123 8.99954 24.9205 9.00062 24.9111 9.00154C24.9112 9.00153 24.9113 9.00153 24.9114 9.00153ZM16.7343 9.00165C16.7334 8.99816 16.6951 8.99482 16.6942 8.9983C16.6735 9.08266 16.7506 9.08901 16.7343 9.00165ZM12.6602 8.85699C12.6581 8.84857 12.5693 8.84066 12.5664 8.84843C12.5201 9.0037 12.6996 9.02009 12.6602 8.85699ZM19.3123 8.84745C19.3541 8.78105 19.404 8.77536 19.4373 8.85896C19.3958 8.85379 19.3541 8.85236 19.3123 8.84745Z" fill="black"/>
<path d="M0.238126 16.9626C0.378219 16.9397 0.561859 16.9119 0.701422 16.8964C0.745162 16.8915 0.723013 16.9006 0.753207 16.8978C0.81226 16.8926 0.867275 16.8821 0.925632 16.878C0.944971 16.8768 0.920898 16.8918 0.941176 16.8904C1.0523 16.8837 1.15743 16.8692 1.27 16.8607C1.8245 16.8211 2.36955 16.7902 2.93083 16.7663C3.1159 16.7579 3.34087 16.7795 3.53203 16.7529C3.55434 16.7497 3.54104 16.7146 3.54528 16.7114C3.61188 16.6613 3.58974 16.7356 3.63321 16.743C3.80578 16.7717 3.99767 16.7682 4.16374 16.7441C4.2344 16.7337 4.16356 16.6556 4.2347 16.6975C4.23964 16.7004 4.22171 16.7453 4.24109 16.7491C4.28503 16.7577 4.36839 16.7459 4.40245 16.748C4.46808 16.7522 4.47894 16.7513 4.54102 16.7492C4.62588 16.7465 4.72682 16.7663 4.81787 16.7518C4.83731 16.7485 4.81158 16.6997 4.84257 16.6897C4.87359 16.6797 4.95567 16.6798 4.98333 16.6906C5.01101 16.7014 4.99922 16.7424 5.00412 16.7514C5.04442 16.8285 5.13935 16.7162 5.15156 16.7125C5.37427 16.6557 5.56526 16.7123 5.77431 16.7055C5.93302 16.6997 6.10272 16.6703 6.25373 16.6681C6.43363 16.6657 6.58611 16.6945 6.76089 16.6837C6.77934 16.6825 6.75772 16.6088 6.78025 16.6071C7.0196 16.5898 7.25728 16.5888 7.4956 16.6356C7.5195 16.6404 7.4887 16.7108 7.51258 16.7198C7.65877 16.7728 7.89009 16.9137 7.97692 16.5983C8.07595 16.6079 8.19618 16.6174 8.28477 16.6801C8.34189 16.7206 8.28641 16.8016 8.35658 16.7664C8.37241 16.7585 8.35183 16.6885 8.37556 16.682C8.47548 16.6542 8.58465 16.6753 8.6835 16.6364C8.70361 16.6283 8.69812 16.5642 8.70381 16.5525C8.75169 16.4573 8.8314 16.6109 8.84877 16.6221C8.98109 16.7043 9.07771 16.6698 9.20097 16.6699C9.22957 16.67 9.19576 16.582 9.22328 16.5788C9.36603 16.5634 9.5139 16.5682 9.65368 16.6061C9.68477 16.6147 9.65618 16.692 9.67103 16.7001C9.73654 16.7351 9.75107 16.5893 9.81389 16.6199C9.82714 16.6262 9.81968 16.6924 9.8221 16.6997C9.85991 16.8134 9.89276 16.6513 9.90249 16.6475C10.0255 16.5969 10.1042 16.7661 10.223 16.7412C10.2372 16.738 10.2052 16.6535 10.2451 16.6496C10.5114 16.6234 10.7931 16.6439 11.0566 16.7118C11.0976 16.7223 11.0684 16.7875 11.0709 16.7955C11.113 16.9207 11.1402 16.7526 11.1535 16.7462C11.2589 16.7 11.3574 16.8412 11.429 16.6398C11.7873 16.6942 12.1442 16.6315 12.5 16.6985C12.5876 16.715 12.6752 16.7394 12.7627 16.7753C12.7683 16.7774 12.7582 16.8611 12.7694 16.865C12.9047 16.9121 12.8787 16.7819 12.9682 16.623C12.9907 16.5831 13.0593 16.7752 13.0654 16.7893C13.0875 16.8411 13.0645 16.9655 13.0719 16.9756C13.1332 17.0544 13.1232 16.6431 13.2058 16.6433C13.2084 16.644 13.1976 16.7196 13.2045 16.7271C13.226 16.7508 13.2474 16.7208 13.2685 16.7468C13.3167 16.8072 13.3339 17.0066 13.4076 16.8906C13.417 16.8756 13.4027 16.6429 13.4765 16.6543C13.5059 16.6589 13.6361 16.6556 13.6726 16.6708C13.709 16.686 13.684 16.7605 13.6866 16.7638C13.7848 16.8628 13.7475 16.9036 13.7967 17.0495C13.8459 17.1948 13.8323 16.8483 13.8523 16.8097C13.8724 16.7712 13.9444 16.8526 13.9621 16.8808C13.9798 16.9091 13.9577 16.9563 13.9734 16.9722C14.0777 17.0764 14.0192 16.8009 14.0536 16.7462C14.1345 16.6171 14.1976 16.873 14.2718 16.898C14.2918 16.9048 14.2754 16.8467 14.2933 16.8414C14.3641 16.821 14.4066 16.9003 14.4871 16.8281C14.5003 16.8163 14.5653 16.6647 14.6075 16.7765C14.6134 16.7926 14.5965 16.8554 14.6266 16.8696C14.6717 16.891 14.7528 16.9049 14.8012 16.8841C14.837 16.8688 14.796 16.7655 14.841 16.7978C14.861 16.8122 14.8239 16.8723 14.8615 16.8942C14.8989 16.9161 14.9944 16.9137 15.0308 16.9118C15.0671 16.9098 15.0472 16.8321 15.0502 16.8269C15.0679 16.797 15.1375 16.7602 15.1437 16.7604C15.4542 16.7543 15.7405 16.8842 16.0427 16.8442C16.0665 16.8412 16.0507 16.7626 16.0543 16.7614C16.1355 16.7295 16.0715 16.9372 16.1282 17.007C16.12 16.8482 16.1535 16.8772 16.2107 16.8602C16.2382 16.8519 16.2232 16.7907 16.2257 16.7845C16.2666 16.6922 16.2951 16.8123 16.3024 16.8368C16.3295 16.9268 16.359 16.821 16.3774 16.881C16.3958 16.9404 16.3534 17.0284 16.4083 17.0272C16.4237 16.9714 16.3829 16.8248 16.4246 16.8015C16.5817 16.7143 16.8751 16.832 17.0015 16.8441C17.1276 16.8568 17.1683 16.8474 17.2418 16.8673C17.3745 16.9031 17.3259 16.8001 17.4083 16.7549C17.491 16.7101 17.4508 16.9586 17.4627 17.0124C17.4743 17.0659 17.4871 17.0108 17.5016 17.0401C17.516 17.0694 17.4847 17.1059 17.5187 17.1167C17.5528 17.1272 17.6458 17.0322 17.6579 16.9772C17.6834 16.8605 17.6415 16.7374 17.7315 16.782C17.7367 16.7847 17.7199 16.8486 17.7397 16.8553C17.8972 16.9064 18.0609 16.9106 18.2182 16.9534C18.2398 16.9593 18.2205 17.0277 18.233 17.0318C18.3642 17.075 18.3173 16.9601 18.3892 16.8348C18.373 17.0026 18.4128 17.1054 18.5123 17.105C18.5721 17.105 18.5618 17.0329 18.6005 16.9824C18.6121 16.9672 18.6544 17.0163 18.6621 16.9827C18.6874 16.8733 18.6475 16.7502 18.7501 16.8011C18.7546 16.8035 18.7403 16.8627 18.7558 16.8665C18.8564 16.8913 18.8684 16.7789 18.9771 16.7685C19.0623 16.7605 19.2138 16.8308 19.3108 16.8429C19.3088 17.0137 19.4004 16.9739 19.4375 16.859C19.5005 16.8649 19.5685 16.8597 19.6293 16.8764C19.6503 16.8821 19.6365 16.9291 19.6391 16.9343C19.6796 17.0146 19.707 16.9056 19.7206 16.9017C19.8679 16.8634 19.9878 16.9441 20.1284 16.8703C20.1334 16.8675 20.1415 16.7624 20.179 16.8403C20.1814 16.8455 20.135 16.8926 20.2011 16.8973C20.2673 16.9026 20.3919 16.9581 20.4837 16.9128C20.5059 16.9017 20.5621 16.8233 20.6072 16.8864C20.6132 16.895 20.6067 16.9228 20.6153 16.9385C20.6434 16.9881 20.6587 16.8906 20.6916 16.9736C20.7246 17.0567 20.7931 17.1153 20.8857 17.0588C20.8886 17.0571 20.9106 16.9829 20.9397 16.9843C20.9862 16.9865 21.0521 17.0016 21.1007 17.001C21.1239 17.0008 21.109 16.9568 21.1131 16.956C21.2693 16.9332 21.3805 16.9733 21.5478 16.9887C21.5785 16.9913 21.6667 16.9392 21.7261 16.9811C21.7913 17.0259 21.7243 17.2129 21.8742 17.1623C21.9346 17.1402 22.0112 16.9204 22.1198 17.0327C22.3306 17.0054 22.5255 17.0537 22.7368 17.0184C22.7463 17.0168 22.7763 16.9693 22.7987 16.9704C22.8318 16.9719 22.85 16.9935 22.8737 16.9949C22.973 17.0012 23.0638 16.9843 23.1594 16.9877C23.1958 16.9889 23.1831 17.0078 23.2264 17.0086C23.2697 17.0092 23.2986 16.9858 23.3572 16.9972C23.4016 17.006 23.4459 17.0501 23.5047 17.0527C23.5069 17.0105 23.5473 17.0109 23.6191 17.0004C23.6329 16.9984 23.6181 16.9848 23.6247 16.9832C23.6512 16.9767 23.6758 16.9879 23.701 16.9809C23.7072 16.9793 23.7075 16.9668 23.7125 16.9648C23.7552 16.9481 23.8254 16.9772 23.8375 16.9813C23.8838 16.9985 23.9054 16.9842 23.9409 16.9909C23.9763 16.997 23.9233 17.0046 23.9647 17.008C24.0505 17.0147 24.1608 17.0112 24.2479 17.0105C24.2826 17.0101 24.2589 17.0007 24.2639 17.0004C24.3358 16.9986 24.4085 17.0061 24.4483 16.9916C24.4982 17.0285 24.4917 16.9882 24.5944 16.9967C24.6025 16.9974 24.6128 17.0098 24.5818 17.0127C24.5507 17.0159 24.5036 17.0123 24.4605 17.0175C24.4502 17.0183 24.3918 17.0387 24.3838 17.0408C24.3213 17.0545 24.3124 17.0223 24.3091 17.0203C24.2716 17.0009 24.2001 17.0257 24.1813 17.029C24.0952 17.0408 24.0221 17.0378 23.95 17.0481C23.9029 17.055 23.8983 17.0897 23.8614 17.0916C23.7384 17.0991 23.6955 17.0422 23.5796 17.1004C23.5548 17.1131 23.5795 17.1603 23.4905 17.129C23.4849 17.1274 23.4188 17.0942 23.3806 17.1208C23.3758 17.1242 23.376 17.1399 23.3696 17.1418C23.3273 17.154 23.299 17.1433 23.2528 17.1533C23.2066 17.1634 23.1511 17.1785 23.0984 17.1769C23.0667 17.1761 23.0259 17.1444 23.0107 17.1366C22.9677 17.1139 22.9217 17.1587 22.8951 17.1288C22.8683 17.0978 22.9207 17.0481 22.8504 17.0283C22.8478 17.0812 22.8418 17.1358 22.8376 17.1896C22.6834 17.2003 22.5317 17.1924 22.3771 17.2054C22.3579 17.2072 22.3775 17.2398 22.3569 17.2427C22.2702 17.2555 22.1944 17.2359 22.1045 17.2529C22.0349 17.2662 21.9585 17.313 21.8857 17.3304C21.8412 17.2503 21.7332 17.2861 21.6547 17.2841C21.6273 17.2833 21.6291 17.2592 21.6095 17.2526C21.5358 17.2278 21.5703 17.3062 21.5501 17.3204C21.4634 17.3825 21.4559 17.1969 21.3537 17.2054C21.3482 17.2055 21.282 17.3124 21.2729 17.32C21.2149 17.3665 21.2633 17.2843 21.227 17.2788C21.1608 17.2688 21.1148 17.2451 21.037 17.2814C21.0144 17.2919 20.96 17.3649 20.916 17.3139C20.9102 17.3071 20.9134 17.2699 20.9088 17.2679C20.8244 17.2357 20.8222 17.3537 20.774 17.398C20.7258 17.4426 20.6514 17.3646 20.6362 17.3407C20.5966 17.2797 20.6666 17.312 20.6687 17.3057C20.694 17.2311 20.6397 17.2463 20.5982 17.2418C20.5922 17.1209 20.5341 17.1293 20.5552 17.2376C20.5575 17.2493 20.5898 17.2366 20.5982 17.2418C20.5617 17.362 20.498 17.3838 20.4275 17.2728C20.3946 17.2205 20.4257 17.1565 20.3256 17.1825C20.2801 17.1944 20.2977 17.2817 20.2576 17.3077C20.166 17.368 20.0469 17.2902 19.9524 17.3074C19.9181 17.314 19.9515 17.3632 19.9281 17.3696C19.8659 17.3869 19.8111 17.3511 19.7486 17.3743C19.743 17.3765 19.7568 17.4304 19.7374 17.4322C19.5901 17.4477 19.4619 17.4191 19.3082 17.4259C19.2339 17.4292 19.1012 17.4689 19.0242 17.4665C18.8909 17.4631 18.7268 17.3807 18.6129 17.4071C18.5386 17.4244 18.5549 17.4868 18.5231 17.5316C18.4616 17.619 18.3529 17.4738 18.3382 17.4503C18.3378 17.4495 18.4017 17.4317 18.3676 17.4001C18.3478 17.3321 18.339 17.4499 18.3382 17.4503C18.3286 17.4356 18.2009 17.4259 18.1755 17.4394C18.1618 17.4468 18.1695 17.5085 18.1623 17.5112C17.9915 17.5747 17.8204 17.6007 17.6472 17.5784C17.6442 17.5772 17.6487 17.5044 17.6416 17.5026C17.5413 17.4741 17.4771 17.5658 17.3944 17.6235C17.3117 17.681 17.2461 17.6668 17.1972 17.5398C17.1348 17.5585 17.0453 17.5046 16.9937 17.471C16.9422 17.4375 16.935 17.5863 16.9305 17.5894C16.7891 17.6893 16.7074 17.6073 16.5608 17.5986C16.4911 17.5943 16.3527 17.6211 16.2772 17.6406C16.2176 17.6563 16.1816 17.6211 16.1267 17.6462C16.1192 17.6496 16.1267 17.7187 16.1245 17.7214C16.0631 17.8068 16.0926 17.6359 16.0799 17.6059C16.034 17.497 16.0056 17.4383 15.9271 17.4924C15.9089 17.5046 15.8561 17.7531 15.8231 17.7689C15.7802 17.7889 15.7964 17.6994 15.7514 17.7224C15.7475 17.7243 15.7483 17.7792 15.7206 17.7777C15.5917 17.7717 15.4513 17.7437 15.3174 17.7531C15.2991 17.7541 15.3225 17.8422 15.2961 17.8453C15.1721 17.8597 15.0362 17.8607 14.9154 17.8218C14.8857 17.8119 14.9043 17.7484 14.8978 17.7298C14.8582 17.6174 14.802 17.7834 14.7928 17.7868C14.5716 17.8719 14.4023 17.7248 14.1769 17.8007C14.1646 17.805 14.0701 17.987 14.028 17.8331C14.0251 17.8229 13.9834 17.6651 13.9466 17.774C13.9443 17.7808 13.9702 17.862 13.9249 17.8544C13.8796 17.8468 13.8066 17.9026 13.7443 17.8134C13.7245 17.7854 13.6779 17.627 13.6191 17.7543C13.6152 17.7631 13.5244 18.0512 13.4919 17.8535C13.4867 17.821 13.4922 17.6112 13.4219 17.7194C13.4085 17.7403 13.4329 17.7869 13.3975 17.8165C13.3434 17.8621 13.2716 17.8064 13.205 17.9006C13.1934 17.9173 13.1439 18.0605 13.1043 17.9524C13.0981 17.9355 13.1099 17.8651 13.0889 17.8574C12.9893 17.8203 12.885 17.8678 12.7839 17.8194C12.7481 17.8024 12.7664 17.6886 12.7291 17.6581C12.6918 17.6277 12.6165 17.5985 12.5775 17.6505C12.5384 17.7026 12.5811 17.884 12.5225 17.8986C12.515 17.9005 12.5075 17.9022 12.5 17.9037C12.2531 17.9554 12.0084 17.8537 11.7618 17.8367C11.7241 17.8341 11.7553 17.8991 11.6998 17.8998C11.495 17.9031 11.1414 17.9578 10.9637 17.8187C10.8214 17.7077 11.0005 17.6275 10.8917 17.5818C10.8392 17.5602 10.7824 17.7664 10.7698 17.7727C10.646 17.8365 10.5599 17.7434 10.4485 17.7691C10.4255 17.7745 10.448 17.8581 10.4284 17.8617C10.3615 17.8745 10.2912 17.8357 10.2273 17.8409C10.1986 17.8434 10.2039 17.9066 10.1775 17.901C10.1144 17.8884 10.0586 17.8603 9.997 17.7999C9.99139 17.7944 10.0292 17.7173 9.9825 17.7133C9.9069 17.7069 9.81305 17.6472 9.72606 17.7043C9.70025 17.7215 9.69924 17.8631 9.64376 17.7636C9.63212 17.7428 9.64697 17.5736 9.58234 17.7184C9.57147 17.7427 9.46291 17.9358 9.40963 17.8072C9.39557 17.7734 9.3597 17.6349 9.32866 17.6556C9.32446 17.6589 9.34132 17.7345 9.3156 17.741C9.22496 17.7625 9.12996 17.7512 9.03684 17.771C9.01197 17.7764 9.04901 17.8544 9.01195 17.8599C8.91003 17.875 8.78278 17.8498 8.68312 17.8219C8.64638 17.8114 8.67177 17.7503 8.6691 17.7434C8.62611 17.6316 8.60068 17.7792 8.58642 17.7871C8.49767 17.8347 8.43009 17.7623 8.34828 17.7769C8.32571 17.7806 8.34172 17.851 8.33722 17.857C8.29062 17.9152 8.32533 17.7921 8.29583 17.7769C8.21319 17.7341 8.12106 17.7357 8.03748 17.7403C8.00678 17.7421 8.04128 17.823 8.01373 17.8236C7.85067 17.8284 7.68116 17.8105 7.52202 17.7592C7.49206 17.7494 7.51091 17.6917 7.50466 17.6779C7.46162 17.5821 7.39854 17.7066 7.38402 17.7176C7.31802 17.7689 7.29239 17.716 7.2341 17.7222C6.94938 17.7523 6.59783 17.6945 6.32907 17.6573C5.97884 17.6081 5.70708 17.5431 5.3731 17.5314C5.35187 17.5306 5.37328 17.5949 5.35498 17.5948C5.11874 17.5903 4.88616 17.5473 4.64945 17.5428C4.63003 17.5423 4.65803 17.5983 4.62685 17.599C4.5629 17.6007 4.48189 17.5892 4.41723 17.5663C4.38569 17.5553 4.42799 17.5155 4.39625 17.5055C4.32233 17.4824 4.2431 17.4721 4.16718 17.4731C4.13487 17.4735 4.18362 17.5282 4.14162 17.5246C3.85554 17.5014 3.57459 17.4746 3.2855 17.3911C3.26569 17.3853 3.2483 17.3008 3.20616 17.3132C3.20298 17.3357 3.20316 17.3625 3.20177 17.3866C2.78532 17.3554 2.37312 17.2846 1.95551 17.2369C1.9379 17.2348 1.96833 17.2664 1.93424 17.2621C1.73694 17.238 1.54535 17.2171 1.34353 17.1723C1.32351 17.1679 1.33378 17.1346 1.27477 17.134C1.26436 17.134 1.17549 17.1293 1.15251 17.1332C1.14939 17.1337 1.1656 17.1498 1.13697 17.1467C0.970538 17.1283 0.796132 17.1023 0.629992 17.0776C0.603178 17.0737 0.631733 17.0687 0.612635 17.066C0.477164 17.0485 0.32981 17.0365 0.200361 17.0201C0.113712 17.0101 0.145792 17.0097 0.0997479 17.0046C0.0932355 17.004 0.03958 17.0015 0.0368053 17.0011C0.0296818 17.0001 0.0556709 16.9978 0.0450069 16.9965C0.0432669 16.9964 9.26989e-06 17 0 17C0 17 0 17 0 17C2.73099e-06 17 0.00376041 16.9997 0.0134402 16.9987C0.0164124 16.9985 0.0685102 16.9931 0.081342 16.9911C0.0902758 16.9897 0.0741767 16.9906 0.0924046 16.9877C0.110631 16.9846 0.130659 16.9834 0.160879 16.9785C0.191084 16.9734 0.177803 16.9725 0.238126 16.9626ZM16.7618 17.3191C16.7141 17.2477 16.7071 17.513 16.7587 17.4481C16.7612 17.4447 16.7643 17.3226 16.7618 17.3191ZM22.5326 17.1117C22.4702 17.0664 22.4276 17.1388 22.4716 17.1738C22.5155 17.2075 22.5516 17.1248 22.5326 17.1117ZM23.1792 17.0588C23.1063 17.0317 23.0948 17.1514 23.1729 17.1225C23.1774 17.1208 23.1835 17.0603 23.1792 17.0588ZM0.313276 17.0123C0.312618 17.0121 0.274048 17.0104 0.273126 17.0106C0.252589 17.0136 0.329712 17.0181 0.313276 17.0123ZM23.8208 17.0203C23.7981 17.0101 23.7326 17.0233 23.7608 17.0364C23.7836 17.0463 23.8492 17.0323 23.8208 17.0203ZM14.2738 17.0411C14.273 17.0367 14.2454 17.0328 14.2459 17.0575C14.2478 17.137 14.2863 17.1145 14.2738 17.0411ZM24.9114 17.0015C24.7502 17.0067 24.6525 16.9858 24.828 16.994C24.8598 16.9949 24.7595 16.9957 24.8 16.9976C24.874 16.9991 24.9231 16.9973 24.9986 17C25.0123 16.9995 24.9205 17.0006 24.9111 17.0015C24.9112 17.0015 24.9113 17.0015 24.9114 17.0015ZM16.7343 17.0017C16.7334 16.9982 16.6951 16.9948 16.6942 16.9983C16.6735 17.0827 16.7506 17.089 16.7343 17.0017ZM12.6602 16.857C12.6581 16.8486 12.5693 16.8407 12.5664 16.8484C12.5201 17.0037 12.6996 17.0201 12.6602 16.857ZM19.3123 16.8474C19.3541 16.7811 19.404 16.7754 19.4373 16.859C19.3958 16.8538 19.3541 16.8524 19.3123 16.8474Z" fill="black"/>
</svg>
