<svg width="30" height="8" viewBox="0 0 30 8" fill="none" xmlns="http://www.w3.org/2000/svg">
<path d="M0.646447 3.64645C0.451184 3.84171 0.451184 4.15829 0.646447 4.35355L3.82843 7.53553C4.02369 7.7308 4.34027 7.7308 4.53553 7.53553C4.7308 7.34027 4.7308 7.02369 4.53553 6.82843L1.70711 4L4.53553 1.17157C4.7308 0.97631 4.7308 0.659728 4.53553 0.464466C4.34027 0.269204 4.02369 0.269204 3.82843 0.464466L0.646447 3.64645ZM29.3536 4.35355C29.5488 4.15829 29.5488 3.84171 29.3536 3.64644L26.1716 0.464464C25.9763 0.269202 25.6597 0.269202 25.4645 0.464464C25.2692 0.659726 25.2692 0.976309 25.4645 1.17157L28.2929 4L25.4645 6.82842C25.2692 7.02369 25.2692 7.34027 25.4645 7.53553C25.6597 7.73079 25.9763 7.73079 26.1716 7.53553L29.3536 4.35355ZM1 4L1 4.5L29 4.5L29 4L29 3.5L1 3.5L1 4Z" fill="#6A6A6A"/>
</svg>
