<svg width="16" height="64" viewBox="0 0 16 64" fill="none" xmlns="http://www.w3.org/2000/svg">
<path d="M8.70711 0.292893C8.31658 -0.0976311 7.68342 -0.0976311 7.29289 0.292893L0.928932 6.65685C0.538408 7.04738 0.538408 7.68054 0.928932 8.07107C1.31946 8.46159 1.95262 8.46159 2.34315 8.07107L8 2.41421L13.6569 8.07107C14.0474 8.46159 14.6805 8.46159 15.0711 8.07107C15.4616 7.68054 15.4616 7.04738 15.0711 6.65685L8.70711 0.292893ZM7.2929 63.7071C7.68342 64.0976 8.31659 64.0976 8.70711 63.7071L15.0711 57.3431C15.4616 56.9526 15.4616 56.3195 15.0711 55.9289C14.6805 55.5384 14.0474 55.5384 13.6569 55.9289L8 61.5858L2.34315 55.9289C1.95262 55.5384 1.31946 55.5384 0.928935 55.9289C0.53841 56.3195 0.53841 56.9526 0.928935 57.3431L7.2929 63.7071ZM8 1L7 1L7 63L8 63L9 63L9 1L8 1Z" fill="#6A6A6A"/>
</svg>
