<svg width="156" height="15" viewBox="0 0 396 15" fill="none" xmlns="http://www.w3.org/2000/svg">
<path d="M0.292893 6.79289C-0.0976311 7.18342 -0.0976311 7.81658 0.292893 8.20711L6.65685 14.5711C7.04738 14.9616 7.68054 14.9616 8.07107 14.5711C8.46159 14.1805 8.46159 13.5474 8.07107 13.1569L2.41421 7.5L8.07107 1.84315C8.46159 1.45262 8.46159 0.819457 8.07107 0.428932C7.68054 0.0384078 7.04738 0.0384078 6.65685 0.428932L0.292893 6.79289ZM395.707 8.20711C396.098 7.81658 396.098 7.18342 395.707 6.79289L389.343 0.428932C388.953 0.0384078 388.319 0.0384078 387.929 0.428932C387.538 0.819457 387.538 1.45262 387.929 1.84315L393.586 7.5L387.929 13.1569C387.538 13.5474 387.538 14.1805 387.929 14.5711C388.319 14.9616 388.953 14.9616 389.343 14.5711L395.707 8.20711ZM1 7.5V8.5H395V7.5V6.5H1V7.5Z" fill="#6A6A6A"/>
</svg>
