<?xml version="1.0" encoding="UTF-8"?>
<svg version="1.1" xmlns="http://www.w3.org/2000/svg" width="163" height="35">
<path d="M0 0 C2.4164124 0.48328248 4.65832183 1.21944061 7 2 C8.34412518 1.35536854 9.67672621 0.6864173 11 0 C16.64943037 -0.79092025 21.17300113 -0.18143107 26 3 C30.16604785 6.59795042 32.69671608 9.52191419 33.18359375 15.10546875 C33.31749047 19.80760636 32.80835014 23.59214652 31 28 C31.495 28.45375 31.99 28.9075 32.5 29.375 C34 31 34 31 34 33 C33.34 33 32.68 33 32 33 C32 33.66 32 34.32 32 35 C27.25 34.125 27.25 34.125 25 33 C24.319375 33.309375 23.63875 33.61875 22.9375 33.9375 C17.7606563 35.80997538 12.93278333 35.66904038 7.75 33.875 C2.59342052 30.35915036 -0.76736446 26.16317768 -2 20 C-1.86104236 16.29202515 -1.17504755 12.73201701 -0.3125 9.125 C-0.209375 8.42375 -0.10625 7.7225 0 7 C-0.66 6.34 -1.32 5.68 -2 5 C-1.46428571 1.46428571 -1.46428571 1.46428571 0 0 Z M11 7 C12.65863505 11.32504836 15.871041 14.09418825 19.125 17.25 C19.96998047 18.08144531 19.96998047 18.08144531 20.83203125 18.9296875 C22.21686028 20.29104485 23.60783204 21.64614859 25 23 C27.34783968 21.07720547 27.34783968 21.07720547 27.3125 17.6875 C26.97719179 13.73086316 26.52261608 12.0271393 24 9 C19.70999636 6.29543249 15.77787903 4.61106049 11 7 Z M5 13 C4.49660153 19.24208718 4.49660153 19.24208718 6.75 24.9375 C9.54491384 27.58109149 9.54491384 27.58109149 13 29 C15.72666896 28.85317936 18.29698398 28.45050267 21 28 C16.6309657 22.75715884 12.16722236 17.48058696 7 13 C6.34 13 5.68 13 5 13 Z " fill="#010101" transform="translate(2,0)"/>
<path d="M0 0 C0.804375 0.495 1.60875 0.99 2.4375 1.5 C2.4375 2.16 2.4375 2.82 2.4375 3.5 C3.4275 3.83 4.4175 4.16 5.4375 4.5 C8.83918594 9.66552309 8.4375 11.75715332 8.4375 18.5 C-4.9275 18.995 -4.9275 18.995 -18.5625 19.5 C-18.03596971 23.41997695 -18.03596971 23.41997695 -15.9375 24.6875 C-11.02053234 26.36962051 -6.59686255 26.87300797 -1.5625 25.5 C-1.5625 24.84 -1.5625 24.18 -1.5625 23.5 C-0.9025 23.5 -0.2425 23.5 0.4375 23.5 C0.4375 22.84 0.4375 22.18 0.4375 21.5 C2.4175 21.5 4.3975 21.5 6.4375 21.5 C6.17666266 25.32561437 5.92330286 27.02732694 3.125 29.75 C-2.29550499 33.27963116 -6.10819017 34.2196443 -12.5625 33.5 C-17.27025773 31.77985775 -20.27372614 29.2585987 -23.5625 25.5 C-24.66361689 22.19664934 -24.76476528 19.60167863 -24.8125 16.125 C-24.83828125 15.00351562 -24.8640625 13.88203125 -24.890625 12.7265625 C-24.34815548 7.39227884 -21.569441 3.91768497 -17.5625 0.5 C-12.01794271 -2.66831845 -5.73702201 -2.41558822 0 0 Z M-14.25 6.25 C-15.15298828 6.73726562 -15.15298828 6.73726562 -16.07421875 7.234375 C-18.00701897 8.62928533 -18.00701897 8.62928533 -18.5625 12.5 C-11.9625 12.5 -5.3625 12.5 1.4375 12.5 C0.88201897 8.62928533 0.88201897 8.62928533 -1.05078125 7.234375 C-1.65277344 6.90953125 -2.25476563 6.5846875 -2.875 6.25 C-3.46925781 5.91484375 -4.06351563 5.5796875 -4.67578125 5.234375 C-8.31744859 3.81691442 -11.00969474 4.42249595 -14.25 6.25 Z " fill="#010101" transform="translate(154.5625,1.5)"/>
<path d="M0 0 C1.98 0 3.96 0 6 0 C6.0093457 0.67579102 6.01869141 1.35158203 6.02832031 2.04785156 C6.08207301 5.1159711 6.16570992 8.18257387 6.25 11.25 C6.26417969 12.31347656 6.27835938 13.37695312 6.29296875 14.47265625 C6.32519531 15.49746094 6.35742188 16.52226562 6.390625 17.578125 C6.41157227 18.52075195 6.43251953 19.46337891 6.45410156 20.43457031 C7.15504289 23.72861839 8.35771566 24.96535733 11 27 C14.1403994 27.17110449 14.1403994 27.17110449 17 26 C19.0058703 22.97973486 19.28936377 20.37157195 19.4140625 16.796875 C19.45273437 15.8171875 19.49140625 14.8375 19.53125 13.828125 C19.5621875 12.81234375 19.593125 11.7965625 19.625 10.75 C19.66367187 9.71875 19.70234375 8.6875 19.7421875 7.625 C19.83631674 5.0835106 19.92194979 2.54202567 20 0 C21.98 0 23.96 0 26 0 C26.11662261 4.04142215 26.1873935 8.08240865 26.25 12.125 C26.30027344 13.83816406 26.30027344 13.83816406 26.3515625 15.5859375 C26.47509005 26.20930685 26.47509005 26.20930685 22 31 C17.634442 33.910372 14.20499921 34.6506249 9 34 C1.64046254 29.83422408 1.64046254 29.83422408 0.38110352 26.22753906 C-0.07388363 23.56815233 -0.11201057 21.05798668 -0.09765625 18.359375 C-0.09443359 17.28945313 -0.09121094 16.21953125 -0.08789062 15.1171875 C-0.07951172 14.00601562 -0.07113281 12.89484375 -0.0625 11.75 C-0.05798828 10.62335937 -0.05347656 9.49671875 -0.04882812 8.3359375 C-0.03705397 5.55723783 -0.0206084 2.77864591 0 0 Z " fill="#020202" transform="translate(40,1)"/>
<path d="M0 0 C4.40459977 2.11759604 6.58351826 4.23901334 8.41552734 8.77758789 C9.63342938 13.40856626 9.30253368 18.18572401 9.1875 22.9375 C9.16719727 24.53561523 9.16719727 24.53561523 9.14648438 26.16601562 C9.11134724 28.77787588 9.06215184 31.38866634 9 34 C7.35 34 5.7 34 4 34 C3.98541748 33.39003174 3.97083496 32.78006348 3.95581055 32.15161133 C3.88105225 29.37128936 3.78448518 26.59213176 3.6875 23.8125 C3.66494141 22.85279297 3.64238281 21.89308594 3.61914062 20.90429688 C3.42659849 13.92816362 3.42659849 13.92816362 0 8 C-2.94729537 6.84188612 -2.94729537 6.84188612 -6 7 C-7.76692162 8.11485129 -7.76692162 8.11485129 -9 10 C-9.48798985 12.49303591 -9.48798985 12.49303591 -9.4765625 15.2890625 C-9.5075 16.31257813 -9.5384375 17.33609375 -9.5703125 18.390625 C-9.58835937 19.45796875 -9.60640625 20.5253125 -9.625 21.625 C-9.67577422 23.74228496 -9.7302548 25.85948544 -9.7890625 27.9765625 C-9.80662598 28.91580566 -9.82418945 29.85504883 -9.84228516 30.82275391 C-10 33 -10 33 -11 34 C-12.66617115 34.04063832 -14.33388095 34.042721 -16 34 C-16.08725659 29.7709638 -16.1404789 25.54215988 -16.1875 21.3125 C-16.21263672 20.11431641 -16.23777344 18.91613281 -16.26367188 17.68164062 C-16.27333984 16.52470703 -16.28300781 15.36777344 -16.29296875 14.17578125 C-16.3086792 13.11270752 -16.32438965 12.04963379 -16.34057617 10.9543457 C-15.94871416 7.55511828 -15.02843714 5.73223564 -13 3 C-8.62423085 0.11597033 -5.19900136 -0.64987517 0 0 Z " fill="#010101" transform="translate(115,0)"/>
<path d="M0 0 C1.77049689 -0.05410687 3.54146849 -0.09284119 5.3125 -0.125 C6.29863281 -0.14820312 7.28476563 -0.17140625 8.30078125 -0.1953125 C11 0 11 0 14 2 C15.00005304 5.00015912 15.11575585 6.97423756 15.09765625 10.10546875 C15.09443359 11.08837891 15.09121094 12.07128906 15.08789062 13.08398438 C15.07951172 14.10814453 15.07113281 15.13230469 15.0625 16.1875 C15.05798828 17.22326172 15.05347656 18.25902344 15.04882812 19.32617188 C15.0370401 21.88417266 15.02058515 24.44205733 15 27 C17.64 27 20.28 27 23 27 C23 28.98 23 30.96 23 33 C15.41 33 7.82 33 0 33 C0 31.02 0 29.04 0 27 C2.97 27 5.94 27 9 27 C9 20.07 9 13.14 9 6 C6.03 6 3.06 6 0 6 C0 4.02 0 2.04 0 0 Z " fill="#000000" transform="translate(71,1)"/>
</svg>
