<svg width="144" height="56" viewBox="0 0 144 56" fill="none" xmlns="http://www.w3.org/2000/svg">
<path d="M13.8354 50.3757C13.8965 49.6811 14.2424 49.1073 14.591 48.5334C14.2288 48.3842 13.9562 48.0804 13.7445 47.7466C13.5628 47.4441 13.4122 47.0684 13.2914 46.7496C12.8682 45.4812 12.7759 44.1517 12.6566 42.8521V42.0653C12.5073 42.1874 12.4748 43.213 12.4748 43.3649C12.3839 44.754 12.2035 46.1147 11.9322 47.4428C11.8413 47.9854 11.7829 48.5307 11.4492 49.0137C11.4492 49.0747 11.4492 49.1358 11.4791 49.2253C12.0217 50.8261 12.1736 52.458 12.2659 54.1198V54.7235C12.2659 55.4479 12.236 55.2973 12.8397 55.5374C13.0812 55.6283 13.3552 55.6595 13.5953 55.84C13.7771 55.84 13.8069 55.6907 13.8069 55.5686L13.7161 54.5716V51.7906C13.6862 51.3076 13.7771 50.8233 13.8381 50.3702L13.8354 50.3757Z" fill="#C2BFBF"/>
<path d="M12.353 0.524292L13.8317 3.30527C14.1536 3.80691 14.5283 4.27261 14.9495 4.6944C16.1881 5.93295 17.3669 7.23119 18.4223 8.62168C20.9293 11.9141 22.6209 15.57 23.8296 19.5285C24.554 21.9459 24.9474 24.423 24.9773 26.93C25.0994 34.4223 22.53 40.8566 17.3344 46.2042C16.4925 47.0518 15.5833 47.8299 14.6158 48.5307C14.1003 48.5307 13.8602 48.1237 13.6486 47.7751C13.2416 47.0968 13.0137 46.3548 12.8929 45.6005C12.7112 44.6943 12.5904 43.7881 12.6515 42.8507V42.4275C12.6216 42.3366 12.1685 0.737274 12.349 0.525649L12.353 0.524292Z" fill="#599636"/>
<path d="M12.3531 0.433334C12.2921 0.311243 12.2311 0.40349 12.1714 0.46318C12.2012 1.06685 11.9896 1.61084 11.6559 2.12498C11.2937 2.64048 10.8094 3.03117 10.3264 3.45442C7.6377 5.78095 5.52416 8.59041 3.83115 11.7322C1.59552 15.962 0.418016 20.493 0.0870122 25.2668C-0.0622108 26.9896 0.629641 33.0616 1.17498 34.813C2.65365 39.466 5.31253 43.3621 8.77179 46.7454C9.61829 47.5593 10.5245 48.3163 11.4605 49.0407C11.7318 49.0407 11.763 48.7992 11.8227 48.6174C11.9418 48.2316 12.0324 47.8376 12.094 47.4386C12.3654 45.9287 12.5173 44.4175 12.6977 42.9076L12.3654 0.433334H12.3531Z" fill="#6CAC48"/>
<path d="M36.7759 30.3426V33.2198C36.7727 33.3337 36.7792 33.4477 36.7953 33.5605C36.8327 33.9013 37.0418 34.1091 37.3494 34.2047C37.6363 34.2802 37.9278 34.3371 38.2221 34.375C38.3924 34.3944 38.4492 34.4692 38.4686 34.6521C38.488 35.2962 38.4312 35.3724 37.8065 35.3336C36.3492 35.2574 34.8906 35.2394 33.4333 35.3336H33.2948C32.8404 35.353 32.803 35.3142 32.803 34.8599C32.803 34.7837 32.8224 34.6895 32.8224 34.6133C32.8224 34.4748 32.9166 34.4055 33.0496 34.4055C33.3544 34.3681 33.637 34.2919 33.9223 34.2351C34.3199 34.1409 34.5457 33.8944 34.5844 33.4968C34.6399 33.0619 34.6399 32.6075 34.6399 32.1711L34.6593 27.0984C34.6655 26.9513 34.6297 26.8054 34.5561 26.6779C34.4826 26.5503 34.3742 26.4464 34.2437 26.3781C33.9011 26.1878 33.5388 26.0355 33.1632 25.9238C33.0496 25.8864 32.936 25.8684 32.8418 25.8102C32.5648 25.6772 32.5579 25.432 32.8224 25.2796C32.9166 25.2242 33.0302 25.1854 33.1438 25.166C34.2926 24.9965 35.4214 24.7111 36.5127 24.3141C36.7399 24.2379 36.7967 24.2587 36.8174 24.4845C36.8368 24.623 36.8174 24.7893 36.798 24.9195C36.7606 25.166 36.7606 25.4112 36.7606 25.6398C36.7606 25.734 36.78 25.8296 36.8742 25.8864C36.9684 25.9432 37.064 25.8864 37.1513 25.831C37.5488 25.5262 37.9464 25.2436 38.3814 24.9998C39.0047 24.6591 39.6696 24.3557 40.3899 24.2615C41.2626 24.1479 42.0176 24.3751 42.6811 24.943C42.9555 25.1886 43.1971 25.4684 43.4001 25.7755C43.5898 26.0526 43.6078 26.0595 43.8544 25.8697C44.5747 25.3392 45.3311 24.8668 46.1456 24.5261C46.9975 24.1659 47.8688 24.1105 48.7387 24.4125C49.628 24.7339 50.2348 25.3586 50.5949 26.2105C50.8997 26.892 51.0299 27.5957 51.0299 28.3299V33.4026C51.0299 33.7434 51.1684 33.9567 51.5036 34.1229C51.8638 34.2615 52.2614 34.3307 52.6395 34.4069C52.8861 34.4623 52.8861 34.4623 52.8861 34.7117C52.8487 35.335 52.7919 35.3738 52.1852 35.335C50.6658 35.2498 49.1429 35.2498 47.6236 35.335C47.3189 35.3544 47.3189 35.3544 47.3022 35.051V34.9568C47.2828 34.4443 47.2828 34.4443 47.776 34.3335L48.2677 34.2005C48.4343 34.1613 48.5829 34.0671 48.6894 33.9332C48.796 33.7993 48.8543 33.6333 48.8551 33.4622L48.9105 32.0423L48.8731 28.3327C48.8586 28.0015 48.7883 27.675 48.6653 27.3672C48.1916 26.2119 47.1512 25.7963 46.147 25.9099C45.3892 25.9861 44.7271 26.2881 44.1024 26.7244C43.9694 26.8186 43.8752 26.9322 43.8946 27.122C44.065 28.3341 43.95 29.5461 43.9708 30.7568V33.3888C43.9708 33.8625 44.1605 34.0897 44.6149 34.2033L45.4876 34.3931C45.6206 34.4124 45.6954 34.4692 45.6954 34.6202V34.7588C45.676 35.2893 45.64 35.3128 45.108 35.3073C43.594 35.2311 42.0785 35.2519 40.5839 35.3073C40.0713 35.3267 40.0298 35.2699 40.0533 34.7532C40.0727 34.4485 40.1087 34.4318 40.3941 34.375L41.0175 34.2615C41.5715 34.1479 41.7752 33.9401 41.8126 33.3527L41.868 32.0839L41.8306 28.2787C41.7932 27.8049 41.6921 27.3505 41.433 26.9156C41.0549 26.2147 40.4634 25.8559 39.653 25.8171C38.8385 25.7617 38.1196 26.0637 37.4366 26.4405C36.9629 26.7175 36.7551 27.0458 36.7925 27.5957V30.3593L36.7759 30.3426ZM72.4414 30.4576V33.127C72.4444 33.3168 72.4569 33.5063 72.4788 33.6949C72.4869 33.8206 72.5355 33.9403 72.6175 34.0359C72.6994 34.1316 72.8102 34.1981 72.9331 34.2254C73.2598 34.3207 73.5963 34.3778 73.936 34.3958C74.1258 34.4152 74.1632 34.49 74.1826 34.6424V34.7754C74.1632 35.4375 74.0884 35.5137 73.4443 35.4763C72.0036 35.3821 70.5672 35.4001 69.1279 35.4763L68.5738 35.4957C68.4602 35.4957 68.4353 35.4403 68.4034 35.3627C68.3481 35.1006 68.3481 34.8297 68.4034 34.5676C68.4228 34.454 68.4976 34.4291 68.6112 34.3972C68.8883 34.3598 69.1238 34.303 69.3869 34.2587C69.8607 34.1451 70.0311 33.9539 70.0491 33.4636L70.1045 31.8733V27.2162C70.1045 26.8754 69.9715 26.6676 69.6695 26.5153C69.3288 26.3255 68.9686 26.1939 68.5891 26.0609C68.4755 26.0235 68.3619 25.9847 68.2677 25.9279C68.0211 25.7575 67.9906 25.5124 68.2303 25.3226C68.3377 25.2342 68.4698 25.181 68.6085 25.1702C69.8205 24.9804 70.9938 24.7158 72.1297 24.2615C72.2627 24.2061 72.3195 24.2421 72.3763 24.3557C72.4331 24.4693 72.4525 24.6023 72.4317 24.7339L72.3763 25.6232C72.3763 25.7368 72.3209 25.9002 72.4137 25.9445C72.5273 26.0207 72.6035 25.8503 72.6976 25.806C73.2566 25.3371 73.874 24.9428 74.5345 24.6327C75.1218 24.3557 75.7258 24.1784 76.4087 24.2172C77.6776 24.2933 78.5863 24.9375 79.1722 26.054C79.477 26.6413 79.6072 27.2841 79.664 27.9476L79.7194 29.3328L79.7388 33.5162C79.7582 33.8376 79.8717 34.0468 80.1931 34.1603C80.5263 34.2714 80.8683 34.3539 81.2154 34.4069C81.5202 34.4443 81.5368 34.5011 81.5562 34.7851V34.8793C81.5188 35.5234 81.48 35.5414 80.8359 35.5026C79.4235 35.4269 78.0081 35.4269 76.5957 35.5026C76.4059 35.522 76.2175 35.5026 76.0416 35.522C75.928 35.522 75.8518 35.5026 75.8338 35.389C75.7964 35.1425 75.7576 34.8973 75.8144 34.6313C75.8338 34.5177 75.8906 34.4609 76.0222 34.4415L76.8949 34.303C77.1996 34.2268 77.3686 34.026 77.4074 33.7489L77.4448 33.2184L77.4254 29.2622C77.4254 28.8078 77.406 28.3535 77.3118 27.8991C77.0847 26.9294 76.3463 26.2368 75.3448 26.1399C74.4721 26.0457 73.6825 26.2728 72.9595 26.7452C72.5993 26.9724 72.4469 27.2938 72.4469 27.6913V30.5504C72.4469 30.495 72.4469 30.495 72.4663 30.495L72.4414 30.4576Z" fill="#454545"/>
<path d="M127.887 25.1019C127.68 23.7195 127.167 22.4894 126.278 21.4103C125.503 20.457 124.5 19.7147 123.362 19.2521C122.17 18.7603 120.9 18.608 119.613 18.5706C119.083 18.5512 111.852 18.6648 111.321 18.5706C111.188 18.5512 111.094 18.59 111.017 18.7036C110.922 18.8421 110.827 18.9875 110.77 19.1385C110.543 19.651 110.543 19.6123 111.091 19.6871C111.546 19.7633 111.981 19.8007 112.417 19.9336C112.815 20.0666 113.099 20.2938 113.193 20.7288C113.23 20.9365 113.269 27.5995 113.269 30.7052L113.193 32.9215C113.173 33.0919 113.155 33.2623 113.099 33.4133C113.022 33.6405 112.891 33.8289 112.664 33.9258C112.414 34.0435 112.144 34.1139 111.869 34.1336C111.356 34.189 111.281 34.2098 111.111 34.7778L111.055 34.9855C111.018 35.2321 111.036 35.2695 111.283 35.2695L116.943 35.3249L119.159 35.2875L120.692 35.0977C122.434 34.7764 123.986 34.0561 125.311 32.9022C126.067 32.234 126.685 31.4235 127.128 30.5168C127.659 29.4571 127.886 28.3004 127.943 27.1285C128.037 26.4664 127.998 25.7848 127.887 25.1033V25.1019ZM125.142 27.7893C125.066 29.0013 124.82 30.1746 124.196 31.2343C123.401 32.6168 122.265 33.5823 120.694 33.9217C120.012 34.0602 119.331 34.1295 118.616 34.0353C118.103 33.9799 117.613 33.9217 117.139 33.7513C116.287 33.4465 115.984 32.9202 115.966 32.089L115.947 20.6747C115.947 19.9932 116.251 19.8436 116.742 19.8228C117.48 19.7674 118.238 19.7854 118.976 19.8602C119.762 19.9362 120.533 20.1228 121.267 20.4143C121.812 20.6415 122.318 20.9549 122.763 21.3424C123.786 22.2151 124.467 23.3094 124.841 24.5977C125.146 25.6394 125.201 26.6991 125.146 27.7588L125.142 27.7893ZM143.621 29.6455C143.621 29.5319 143.621 29.4377 143.601 29.3241C143.431 28.2824 142.881 27.4873 142.03 26.8819C141.482 26.4844 140.857 26.2198 140.213 26.03C140.099 25.9926 140.005 25.9538 139.892 25.9358C139.911 25.8416 139.968 25.8222 140.025 25.8029C140.403 25.6131 140.763 25.4053 141.084 25.1213C141.672 24.6296 142.054 24.0228 142.258 23.2845C142.371 22.8869 142.371 22.4894 142.334 22.0724C142.303 21.5847 142.163 21.1101 141.923 20.684C141.684 20.2579 141.352 19.8911 140.951 19.6109C140.079 18.9667 139.058 18.7022 137.998 18.6828C135.953 18.6454 133.891 18.6828 131.848 18.6828C131.26 18.6828 130.674 18.7202 130.068 18.6274C129.954 18.608 129.791 18.572 129.707 18.7036C129.569 18.9501 129.403 19.1953 129.347 19.4793C129.328 19.6123 129.367 19.6871 129.518 19.7065L130.824 19.8962C131.337 19.9724 131.697 20.2564 131.733 20.7107C131.77 21.0247 131.788 21.3407 131.788 21.6569L131.751 25.1961L131.731 32.1998C131.731 32.6154 131.676 33.0144 131.598 33.4299C131.58 33.5619 131.523 33.6856 131.436 33.7864C131.349 33.8871 131.234 33.9605 131.107 33.9979C130.728 34.1115 130.368 34.225 129.971 34.225C129.864 34.215 129.758 34.2413 129.669 34.2997C129.579 34.3581 129.512 34.4451 129.479 34.5464C129.403 34.7168 129.34 34.9066 129.309 35.077C129.271 35.3041 129.328 35.3817 129.555 35.354C129.726 35.3346 135.973 35.487 137.146 35.3734C137.847 35.2972 138.531 35.203 139.228 34.9952C140.419 34.6171 141.519 34.0671 142.389 33.139C143.11 32.3813 143.525 31.4726 143.563 30.4129C143.618 30.1663 143.618 29.9211 143.618 29.6552L143.621 29.6455ZM134.439 21.8882L134.495 20.3741C134.495 20.0902 134.608 19.9586 134.892 19.9004C135.347 19.8062 135.801 19.845 136.255 19.863C136.71 19.9004 137.145 19.9572 137.599 20.0902C138.43 20.3367 139.076 20.8105 139.455 21.6042C139.628 21.9651 139.718 22.3596 139.72 22.7595C139.739 23.29 139.701 23.8012 139.493 24.311C139.171 25.0119 138.662 25.4662 137.922 25.5992C137.182 25.7322 135.082 25.6754 134.761 25.6754C134.477 25.6754 134.456 25.638 134.456 25.354V23.5712C134.412 23.0169 134.405 22.4601 134.437 21.9048L134.439 21.8882ZM140.59 32.0724C140.268 32.9243 139.681 33.513 138.849 33.8316C138.394 34.002 137.94 34.1087 137.463 34.0782C136.876 34.0588 136.29 34.0782 135.704 33.9646C134.909 33.7942 134.549 33.0365 134.492 32.488C134.398 31.5225 134.455 30.5376 134.437 29.8186V27.3197C134.437 27.0149 134.474 26.9221 134.797 26.9221L136.577 26.9415L137.789 27.08C138.641 27.2698 139.417 27.5926 140.023 28.2533C140.515 28.7839 140.781 29.4266 140.838 30.1275C140.893 30.7897 140.857 31.4338 140.611 32.0585L140.59 32.0724Z" fill="#454545"/>
<path d="M92.4896 26.3689L92.9814 26.4451C93.5119 26.4645 94.1367 26.2747 94.3251 25.5364C94.429 25.1837 94.429 24.8086 94.3251 24.4559C94.2115 24.4559 94.1547 24.5501 94.0979 24.5889C93.8139 24.8161 93.4925 24.949 93.1518 24.9864C92.4702 25.0626 91.7887 25.0238 91.1266 24.7787L90.1984 24.4573C89.5511 24.2453 88.8699 24.156 88.1899 24.1941C87.2244 24.2703 86.3156 24.5917 85.4637 25.046C84.555 25.5378 83.9123 26.2761 83.6075 27.2804C83.4371 27.8677 83.4178 28.4717 83.4939 29.0784C83.6837 30.4609 84.4027 31.4264 85.6895 31.9375C85.7657 31.9569 85.8225 31.9929 85.8973 32.0137C86.0677 32.1079 86.0871 32.2035 85.9347 32.3351L85.461 32.6565L84.3251 33.3574C84.0411 33.5278 84.0037 33.6621 84.0979 33.9627C84.2106 34.3164 84.4203 34.6312 84.7032 34.8714C84.963 35.0943 85.2573 35.2735 85.5746 35.402C85.7823 35.4962 85.7823 35.5405 85.5939 35.7067L84.5135 36.4825C84.1533 36.7595 83.7932 37.0365 83.4912 37.3912C83.2812 37.6159 83.1298 37.889 83.0506 38.1862C82.9713 38.4834 82.9666 38.7955 83.0368 39.095C83.1776 39.7521 83.5217 40.3483 84.0203 40.7988C84.5126 41.2547 85.1113 41.5799 85.7616 41.7449C86.8213 42.0497 87.9197 42.0663 88.9988 41.8585C90.5503 41.5746 91.9078 40.8889 92.9745 39.7197C93.7128 38.944 94.1477 38.0353 94.1865 36.9493C94.2279 36.3212 94.0451 35.6988 93.6707 35.1928C93.2963 34.6868 92.7546 34.3299 92.1419 34.1857L91.1196 33.996L87.9959 33.7189C87.6552 33.6995 87.3144 33.6427 87.0304 33.4724C86.6703 33.2452 86.5761 32.8102 86.8033 32.5262C86.9736 32.3185 87.1814 32.1855 87.4474 32.1661L88.0527 32.1107C89.2499 31.9889 90.3738 31.4768 91.2512 30.6534C91.7198 30.2198 92.0547 29.6613 92.2167 29.0438C92.4439 28.2293 92.4439 27.3815 92.2541 26.5504C92.1987 26.3426 92.2167 26.3232 92.4813 26.3606L92.4896 26.3689ZM87.8491 35.7982C87.9627 35.8176 88.0763 35.7982 88.1899 35.7982C88.985 35.8356 89.7995 35.8924 90.5752 36.1029C90.8285 36.1778 91.0754 36.2727 91.3136 36.3869C92.0713 36.8024 92.3552 37.5228 92.2597 38.2985C92.1461 39.1504 91.6723 39.7558 90.934 40.1547C90.4423 40.4317 89.8923 40.5523 89.3244 40.6091C89.1166 40.6285 88.9268 40.6091 88.719 40.6091C88.0569 40.6285 87.4128 40.5536 86.788 40.2877C86.3531 40.1173 85.9929 39.8721 85.6715 39.53C85.0094 38.8678 84.7019 37.6557 85.6909 36.6708C86.2963 36.1168 86.9792 35.7247 87.8491 35.7982ZM90.0073 29.8915C89.6097 30.8944 88.7384 31.1978 87.8685 31.0648C87.0734 30.9512 86.486 30.5163 86.1093 29.796C85.6175 28.8305 85.4859 27.8289 85.7685 26.7859C85.9763 26.0101 86.45 25.4228 87.2825 25.2898C88.3422 25.1 89.3604 25.4796 89.8951 26.5393C90.1721 27.0518 90.2926 27.6752 90.2926 28.5645C90.2733 28.9247 90.1984 29.4164 90.0087 29.8902L90.0073 29.8915ZM66.1564 28.6033C65.986 27.581 65.6079 26.6529 64.9069 25.8771C63.8652 24.7219 62.541 24.2149 61.0449 24.2107C59.7386 24.1913 58.5099 24.5709 57.4101 25.2524C56.3288 25.8995 55.5362 26.9359 55.1951 28.1489C54.8737 29.2474 54.8903 30.3653 55.1397 31.4804C55.8018 34.4725 58.1124 35.758 60.8745 35.5696C61.689 35.5142 62.4648 35.2482 63.2017 34.8881C64.3002 34.3755 65.0953 33.5624 65.6439 32.4833C66.0788 31.594 66.2672 30.6465 66.2492 29.5674L66.155 28.6019L66.1564 28.6033ZM63.4691 32.8061C63.3337 33.232 63.0771 33.6092 62.7307 33.8917C62.3843 34.1741 61.9631 34.3495 61.5187 34.3963C60.6875 34.5099 59.909 34.3021 59.2095 33.809C58.7045 33.4375 58.2956 32.9507 58.0168 32.3891C57.2411 30.7989 57.1081 29.1338 57.5043 27.43C57.6318 26.9027 57.9077 26.4229 58.2994 26.0475C59.0003 25.4034 59.8135 25.2524 60.7235 25.4422C61.5962 25.632 62.257 26.1043 62.8014 26.8246C63.3458 27.545 63.5965 28.3761 63.7475 29.2488C63.8237 29.6838 63.8237 30.1381 63.8417 30.4221C63.8417 31.3308 63.7655 32.0844 63.4815 32.8074L63.4691 32.8061ZM107.519 28.7557C107.381 27.6572 106.971 26.6543 106.194 25.8217C105.171 24.7052 103.846 24.2315 102.37 24.2121C101.102 24.1927 99.9283 24.5529 98.8492 25.1776C97.6371 25.8979 96.8046 26.9188 96.4832 28.3013C96.0994 29.8095 96.2604 31.4048 96.9376 32.8061C97.5609 34.1317 98.622 34.9836 100.024 35.3618C101.575 35.7774 103.053 35.589 104.491 34.8881C105.741 34.2827 106.63 33.3366 107.141 32.0483C107.446 31.2906 107.557 30.4775 107.576 29.53C107.596 29.3596 107.557 29.0562 107.521 28.7543L107.519 28.7557ZM104.907 32.5609C104.602 33.5832 103.961 34.2453 102.882 34.3977C102.086 34.5113 101.33 34.3215 100.647 33.8671C100.06 33.4696 99.6443 32.939 99.341 32.3157C99.0002 31.6536 98.8104 30.9526 98.7356 30.2337C98.622 29.3444 98.622 28.4744 98.8298 27.5837C98.8694 27.4081 98.9265 27.2369 99.0002 27.0726C99.5307 25.7469 100.704 25.1416 102.086 25.445C103.015 25.6527 103.714 26.1653 104.245 26.941C104.757 27.6987 105.002 28.5312 105.117 29.4344C105.173 29.7946 105.194 30.1727 105.173 30.4941C105.173 31.2324 105.117 31.914 104.896 32.5761L104.907 32.5609Z" fill="#454545"/>
</svg>
