<svg width="586" height="2" viewBox="0 0 586 2" fill="none" xmlns="http://www.w3.org/2000/svg">
<path d="M0.819336 0.636262C0.525244 0.636262 0.286836 0.874671 0.286836 1.16876C0.286836 1.46285 0.525244 1.70126 0.819336 1.70126V1.16876V0.636262ZM6.23062 1.70126C6.52471 1.70126 6.76312 1.46285 6.76312 1.16876C6.76312 0.874671 6.52471 0.636262 6.23062 0.636262V1.16876V1.70126ZM17.0532 0.636262C16.7591 0.636262 16.5207 0.874671 16.5207 1.16876C16.5207 1.46285 16.7591 1.70126 17.0532 1.70126V1.16876V0.636262ZM27.8758 1.70126C28.1699 1.70126 28.4083 1.46285 28.4083 1.16876C28.4083 0.874671 28.1699 0.636262 27.8758 0.636262V1.16876V1.70126ZM38.6983 0.636262C38.4042 0.636262 38.1658 0.874671 38.1658 1.16876C38.1658 1.46285 38.4042 1.70126 38.6983 1.70126V1.16876V0.636262ZM49.5209 1.70126C49.815 1.70126 50.0534 1.46285 50.0534 1.16876C50.0534 0.874671 49.815 0.636262 49.5209 0.636262V1.16876V1.70126ZM60.3435 0.636262C60.0494 0.636262 59.811 0.874671 59.811 1.16876C59.811 1.46285 60.0494 1.70126 60.3435 1.70126V1.16876V0.636262ZM71.166 1.70126C71.4601 1.70126 71.6985 1.46285 71.6985 1.16876C71.6985 0.874671 71.4601 0.636262 71.166 0.636262V1.16876V1.70126ZM81.9886 0.636262C81.6945 0.636262 81.4561 0.874671 81.4561 1.16876C81.4561 1.46285 81.6945 1.70126 81.9886 1.70126V1.16876V0.636262ZM92.8112 1.70126C93.1053 1.70126 93.3437 1.46285 93.3437 1.16876C93.3437 0.874671 93.1053 0.636262 92.8112 0.636262V1.16876V1.70126ZM103.634 0.636262C103.34 0.636262 103.101 0.874671 103.101 1.16876C103.101 1.46285 103.34 1.70126 103.634 1.70126V1.16876V0.636262ZM114.456 1.70126C114.75 1.70126 114.989 1.46285 114.989 1.16876C114.989 0.874671 114.75 0.636262 114.456 0.636262V1.16876V1.70126ZM125.279 0.636262C124.985 0.636262 124.746 0.874671 124.746 1.16876C124.746 1.46285 124.985 1.70126 125.279 1.70126V1.16876V0.636262ZM136.101 1.70126C136.396 1.70126 136.634 1.46285 136.634 1.16876C136.634 0.874671 136.396 0.636262 136.101 0.636262V1.16876V1.70126ZM146.924 0.636262C146.63 0.636262 146.392 0.874671 146.392 1.16876C146.392 1.46285 146.63 1.70126 146.924 1.70126V1.16876V0.636262ZM157.747 1.70126C158.041 1.70126 158.279 1.46285 158.279 1.16876C158.279 0.874671 158.041 0.636262 157.747 0.636262V1.16876V1.70126ZM168.569 0.636262C168.275 0.636262 168.037 0.874671 168.037 1.16876C168.037 1.46285 168.275 1.70126 168.569 1.70126V1.16876V0.636262ZM179.392 1.70126C179.686 1.70126 179.924 1.46285 179.924 1.16876C179.924 0.874671 179.686 0.636262 179.392 0.636262V1.16876V1.70126ZM190.214 0.636262C189.92 0.636262 189.682 0.874671 189.682 1.16876C189.682 1.46285 189.92 1.70126 190.214 1.70126V1.16876V0.636262ZM201.037 1.70126C201.331 1.70126 201.569 1.46285 201.569 1.16876C201.569 0.874671 201.331 0.636262 201.037 0.636262V1.16876V1.70126ZM211.859 0.636262C211.565 0.636262 211.327 0.874671 211.327 1.16876C211.327 1.46285 211.565 1.70126 211.859 1.70126V1.16876V0.636262ZM222.682 1.70126C222.976 1.70126 223.215 1.46285 223.215 1.16876C223.215 0.874671 222.976 0.636262 222.682 0.636262V1.16876V1.70126ZM233.505 0.636262C233.21 0.636262 232.972 0.874671 232.972 1.16876C232.972 1.46285 233.21 1.70126 233.505 1.70126V1.16876V0.636262ZM244.327 1.70126C244.621 1.70126 244.86 1.46285 244.86 1.16876C244.86 0.874671 244.621 0.636262 244.327 0.636262V1.16876V1.70126ZM255.15 0.636262C254.856 0.636262 254.617 0.874671 254.617 1.16876C254.617 1.46285 254.856 1.70126 255.15 1.70126V1.16876V0.636262ZM265.972 1.70126C266.266 1.70126 266.505 1.46285 266.505 1.16876C266.505 0.874671 266.266 0.636262 265.972 0.636262V1.16876V1.70126ZM276.795 0.636262C276.501 0.636262 276.262 0.874671 276.262 1.16876C276.262 1.46285 276.501 1.70126 276.795 1.70126V1.16876V0.636262ZM287.617 1.70126C287.912 1.70126 288.15 1.46285 288.15 1.16876C288.15 0.874671 287.912 0.636262 287.617 0.636262V1.16876V1.70126ZM298.44 0.636262C298.146 0.636262 297.908 0.874671 297.908 1.16876C297.908 1.46285 298.146 1.70126 298.44 1.70126V1.16876V0.636262ZM309.263 1.70126C309.557 1.70126 309.795 1.46285 309.795 1.16876C309.795 0.874671 309.557 0.636262 309.263 0.636262V1.16876V1.70126ZM320.085 0.636262C319.791 0.636262 319.553 0.874671 319.553 1.16876C319.553 1.46285 319.791 1.70126 320.085 1.70126V1.16876V0.636262ZM330.908 1.70126C331.202 1.70126 331.44 1.46285 331.44 1.16876C331.44 0.874671 331.202 0.636262 330.908 0.636262V1.16876V1.70126ZM341.73 0.636262C341.436 0.636262 341.198 0.874671 341.198 1.16876C341.198 1.46285 341.436 1.70126 341.73 1.70126V1.16876V0.636262ZM352.553 1.70126C352.847 1.70126 353.085 1.46285 353.085 1.16876C353.085 0.874671 352.847 0.636262 352.553 0.636262V1.16876V1.70126ZM363.375 0.636262C363.081 0.636262 362.843 0.874671 362.843 1.16876C362.843 1.46285 363.081 1.70126 363.375 1.70126V1.16876V0.636262ZM374.198 1.70126C374.492 1.70126 374.73 1.46285 374.73 1.16876C374.73 0.874671 374.492 0.636262 374.198 0.636262V1.16876V1.70126ZM385.021 0.636262C384.726 0.636262 384.488 0.874671 384.488 1.16876C384.488 1.46285 384.726 1.70126 385.021 1.70126V1.16876V0.636262ZM395.843 1.70126C396.137 1.70126 396.376 1.46285 396.376 1.16876C396.376 0.874671 396.137 0.636262 395.843 0.636262V1.16876V1.70126ZM406.666 0.636262C406.372 0.636262 406.133 0.874671 406.133 1.16876C406.133 1.46285 406.372 1.70126 406.666 1.70126V1.16876V0.636262ZM417.488 1.70126C417.782 1.70126 418.021 1.46285 418.021 1.16876C418.021 0.874671 417.782 0.636262 417.488 0.636262V1.16876V1.70126ZM428.311 0.636262C428.017 0.636262 427.778 0.874671 427.778 1.16876C427.778 1.46285 428.017 1.70126 428.311 1.70126V1.16876V0.636262ZM439.133 1.70126C439.427 1.70126 439.666 1.46285 439.666 1.16876C439.666 0.874671 439.427 0.636262 439.133 0.636262V1.16876V1.70126ZM449.956 0.636262C449.662 0.636262 449.424 0.874671 449.424 1.16876C449.424 1.46285 449.662 1.70126 449.956 1.70126V1.16876V0.636262ZM460.779 1.70126C461.073 1.70126 461.311 1.46285 461.311 1.16876C461.311 0.874671 461.073 0.636262 460.779 0.636262V1.16876V1.70126ZM471.601 0.636262C471.307 0.636262 471.069 0.874671 471.069 1.16876C471.069 1.46285 471.307 1.70126 471.601 1.70126V1.16876V0.636262ZM482.424 1.70126C482.718 1.70126 482.956 1.46285 482.956 1.16876C482.956 0.874671 482.718 0.636262 482.424 0.636262V1.16876V1.70126ZM493.246 0.636262C492.952 0.636262 492.714 0.874671 492.714 1.16876C492.714 1.46285 492.952 1.70126 493.246 1.70126V1.16876V0.636262ZM504.069 1.70126C504.363 1.70126 504.601 1.46285 504.601 1.16876C504.601 0.874671 504.363 0.636262 504.069 0.636262V1.16876V1.70126ZM514.891 0.636262C514.597 0.636262 514.359 0.874671 514.359 1.16876C514.359 1.46285 514.597 1.70126 514.891 1.70126V1.16876V0.636262ZM525.714 1.70126C526.008 1.70126 526.246 1.46285 526.246 1.16876C526.246 0.874671 526.008 0.636262 525.714 0.636262V1.16876V1.70126ZM536.537 0.636262C536.242 0.636262 536.004 0.874671 536.004 1.16876C536.004 1.46285 536.242 1.70126 536.537 1.70126V1.16876V0.636262ZM547.359 1.70126C547.653 1.70126 547.892 1.46285 547.892 1.16876C547.892 0.874671 547.653 0.636262 547.359 0.636262V1.16876V1.70126ZM558.182 0.636262C557.888 0.636262 557.649 0.874671 557.649 1.16876C557.649 1.46285 557.888 1.70126 558.182 1.70126V1.16876V0.636262ZM569.004 1.70126C569.298 1.70126 569.537 1.46285 569.537 1.16876C569.537 0.874671 569.298 0.636262 569.004 0.636262V1.16876V1.70126ZM579.827 0.636262C579.533 0.636262 579.294 0.874671 579.294 1.16876C579.294 1.46285 579.533 1.70126 579.827 1.70126V1.16876V0.636262ZM0.819336 1.16876V1.70126H6.23062V1.16876V0.636262H0.819336V1.16876ZM17.0532 1.16876V1.70126H27.8758V1.16876V0.636262H17.0532V1.16876ZM38.6983 1.16876V1.70126H49.5209V1.16876V0.636262H38.6983V1.16876ZM60.3435 1.16876V1.70126H71.166V1.16876V0.636262H60.3435V1.16876ZM81.9886 1.16876V1.70126H92.8112V1.16876V0.636262H81.9886V1.16876ZM103.634 1.16876V1.70126H114.456V1.16876V0.636262H103.634V1.16876ZM125.279 1.16876V1.70126H136.101V1.16876V0.636262H125.279V1.16876ZM146.924 1.16876V1.70126H157.747V1.16876V0.636262H146.924V1.16876ZM168.569 1.16876V1.70126H179.392V1.16876V0.636262H168.569V1.16876ZM190.214 1.16876V1.70126H201.037V1.16876V0.636262H190.214V1.16876ZM211.859 1.16876V1.70126H222.682V1.16876V0.636262H211.859V1.16876ZM233.505 1.16876V1.70126H244.327V1.16876V0.636262H233.505V1.16876ZM255.15 1.16876V1.70126H265.972V1.16876V0.636262H255.15V1.16876ZM276.795 1.16876V1.70126H287.617V1.16876V0.636262H276.795V1.16876ZM298.44 1.16876V1.70126H309.263V1.16876V0.636262H298.44V1.16876ZM320.085 1.16876V1.70126H330.908V1.16876V0.636262H320.085V1.16876ZM341.73 1.16876V1.70126H352.553V1.16876V0.636262H341.73V1.16876ZM363.375 1.16876V1.70126H374.198V1.16876V0.636262H363.375V1.16876ZM385.021 1.16876V1.70126H395.843V1.16876V0.636262H385.021V1.16876ZM406.666 1.16876V1.70126H417.488V1.16876V0.636262H406.666V1.16876ZM428.311 1.16876V1.70126H439.133V1.16876V0.636262H428.311V1.16876ZM449.956 1.16876V1.70126H460.779V1.16876V0.636262H449.956V1.16876ZM471.601 1.16876V1.70126H482.424V1.16876V0.636262H471.601V1.16876ZM493.246 1.16876V1.70126H504.069V1.16876V0.636262H493.246V1.16876ZM514.891 1.16876V1.70126H525.714V1.16876V0.636262H514.891V1.16876ZM536.537 1.16876V1.70126H547.359V1.16876V0.636262H536.537V1.16876ZM558.182 1.16876V1.70126H569.004V1.16876V0.636262H558.182V1.16876ZM579.827 1.16876V1.70126H585.238V1.16876V0.636262H579.827V1.16876Z" fill="#454545"/>
</svg>
