<?xml version="1.0" encoding="UTF-8"?>
<svg version="1.1" xmlns="http://www.w3.org/2000/svg" width="500" height="500">
<path d="M0 0 C165 0 330 0 500 0 C500 165 500 330 500 500 C335 500 170 500 0 500 C0 335 0 170 0 0 Z " fill="#000000" transform="translate(0,0)"/>
<path d="M0 0 C80.52 0 161.04 0 244 0 C244 7.59 244 15.18 244 23 C163.48 23 82.96 23 0 23 C0 15.41 0 7.82 0 0 Z " fill="#23F494" transform="translate(127,239)"/>
<path d="M0 0 C8.2409441 -0.0678797 16.48166944 -0.12287568 24.72281837 -0.15543652 C28.549856 -0.17106708 32.37669179 -0.19225718 36.20361328 -0.22631836 C39.8994583 -0.25900562 43.59510965 -0.27687263 47.2910881 -0.28463173 C48.69844993 -0.29015851 50.10580161 -0.30095101 51.5130806 -0.31719017 C53.48989706 -0.33908635 55.46690996 -0.34022644 57.44384766 -0.34057617 C58.56747711 -0.34723801 59.69110657 -0.35389984 60.8487854 -0.36076355 C64.44108223 0.05049684 66.8790135 1.21829423 70 3 C70 3.99 70 4.98 70 6 C70.66 6 71.32 6 72 6 C74.39010685 9.58516028 74.24326602 11.14266967 74.22705078 15.39916992 C74.22734283 16.04334366 74.22763489 16.6875174 74.22793579 17.35121155 C74.22654384 19.47776823 74.21098938 21.60397337 74.1953125 23.73046875 C74.19158188 25.20591541 74.18873514 26.68136455 74.18673706 28.15681458 C74.17910442 32.03830822 74.15945917 35.91965196 74.1373291 39.80108643 C74.11686269 43.76255261 74.10773365 47.72404305 74.09765625 51.68554688 C74.07621284 59.45710747 74.0410338 67.22851363 74 75 C65.42 75 56.84 75 48 75 C48 58.5 48 42 48 25 C32.16 25 16.32 25 0 25 C0 16.75 0 8.5 0 0 Z " fill="#28F580" transform="translate(286,140)"/>
<path d="M0 0 C1.02996094 -0.00128906 2.05992187 -0.00257813 3.12109375 -0.00390625 C4.74724609 0.00189453 4.74724609 0.00189453 6.40625 0.0078125 C7.49035156 0.00394531 8.57445312 0.00007813 9.69140625 -0.00390625 C10.72136719 -0.00261719 11.75132812 -0.00132812 12.8125 0 C14.24045898 0.00169189 14.24045898 0.00169189 15.69726562 0.00341797 C17.90625 0.1328125 17.90625 0.1328125 18.90625 1.1328125 C19.01599809 3.05898443 19.05536207 4.98919851 19.06738281 6.91845703 C19.07699036 8.15709503 19.0865979 9.39573303 19.09649658 10.67190552 C19.10134633 12.03647681 19.10562473 13.40105024 19.109375 14.765625 C19.11512662 16.15990196 19.12088436 17.5541789 19.12664795 18.94845581 C19.13717186 21.87905242 19.14300425 24.80962151 19.14648438 27.74023438 C19.15194798 31.48270543 19.17592369 35.22480874 19.20445633 38.96716499 C19.22315619 41.85150176 19.22829237 44.73575165 19.22982025 47.62014389 C19.2328348 48.99875761 19.24082265 50.37737024 19.25400543 51.75592422 C19.37965366 65.91539073 19.37965366 65.91539073 15.90625 71.1328125 C11.58838762 73.77000751 8.37532729 74.50318252 3.35009766 74.47338867 C1.42878525 74.47304878 1.42878525 74.47304878 -0.53134155 74.47270203 C-1.91412716 74.45738562 -3.29690913 74.44173769 -4.6796875 74.42578125 C-6.10600334 74.42018004 -7.53232499 74.41591242 -8.95864868 74.41291809 C-12.69716567 74.4015105 -16.43532826 74.37207925 -20.17370605 74.33880615 C-23.99466153 74.30801658 -27.81567475 74.29439385 -31.63671875 74.27929688 C-39.12257545 74.24720491 -46.60806774 74.1944712 -54.09375 74.1328125 C-54.09375 65.8828125 -54.09375 57.6328125 -54.09375 49.1328125 C-38.25375 49.1328125 -22.41375 49.1328125 -6.09375 49.1328125 C-6.13335829 33.38096444 -6.13335829 33.38096444 -6.18383789 17.62915039 C-6.1867569 15.66292373 -6.18930549 13.69669646 -6.19140625 11.73046875 C-6.19652222 10.69917847 -6.20163818 9.66788818 -6.20690918 8.60534668 C-6.20709045 7.14373108 -6.20709045 7.14373108 -6.20727539 5.65258789 C-6.209496 4.80209366 -6.21171661 3.95159943 -6.21400452 3.07533264 C-5.96879435 -0.88564694 -3.36991732 0.00399279 0 0 Z " fill="#08EFE5" transform="translate(340.09375,286.8671875)"/>
<path d="M0 0 C1.921539 0.00022659 1.921539 0.00022659 3.88189697 0.00045776 C5.27510738 0.01067027 6.6683162 0.02110225 8.06152344 0.03173828 C9.4907003 0.03547014 10.91987972 0.0383163 12.34906006 0.04031372 C16.10395415 0.04793659 19.85869263 0.06757339 23.61352539 0.08972168 C27.44773249 0.11020919 31.28196483 0.11932164 35.11621094 0.12939453 C42.63451914 0.15082069 50.15266713 0.18599171 57.67089844 0.22705078 C57.67089844 8.14705078 57.67089844 16.06705078 57.67089844 24.22705078 C41.83089844 24.22705078 25.99089844 24.22705078 9.67089844 24.22705078 C9.6825 27.75263672 9.69410156 31.27822266 9.70605469 34.91064453 C9.71384407 38.30948802 9.71992151 41.70833052 9.72583008 45.10717773 C9.73087185 47.4769739 9.73770509 49.84676693 9.74633789 52.21655273 C9.75841034 55.61459117 9.76412815 59.01258863 9.76855469 62.41064453 C9.77371597 63.47729843 9.77887726 64.54395233 9.78419495 65.64292908 C9.78430824 67.11434105 9.78430824 67.11434105 9.78442383 68.61547852 C9.78664444 69.48373764 9.78886505 70.35199677 9.79115295 71.24656677 C9.67089844 73.22705078 9.67089844 73.22705078 8.67089844 74.22705078 C6.89018598 74.31431301 5.10606704 74.33404119 3.32324219 74.32470703 C2.24365234 74.32148438 1.1640625 74.31826172 0.05175781 74.31494141 C-1.08455078 74.3065625 -2.22085938 74.29818359 -3.39160156 74.28955078 C-4.53177734 74.28503906 -5.67195312 74.28052734 -6.84667969 74.27587891 C-9.67420508 74.26404826 -12.50162796 74.24756488 -15.32910156 74.22705078 C-15.35226036 65.8039189 -15.37003473 57.3808003 -15.38091373 48.95764446 C-15.3861348 45.04653996 -15.39321841 41.13545721 -15.40454102 37.22436523 C-15.41539741 33.45074563 -15.42138426 29.67714697 -15.42397881 25.90351295 C-15.42582808 24.46299726 -15.42943918 23.02248273 -15.43483162 21.58197594 C-15.44207842 19.56613659 -15.44250993 17.5502762 -15.44262695 15.53442383 C-15.44484756 14.38636765 -15.44706818 13.23831146 -15.44935608 12.0554657 C-15.30204432 8.590658 -14.81890322 6.78441129 -12.51660156 4.16455078 C-8.41410613 0.53091197 -5.4650417 -0.02151591 0 0 Z " fill="#4CFD11" transform="translate(154.3291015625,139.77294921875)"/>
<path d="M0 0 C7.92 0 15.84 0 24 0 C24 15.84 24 31.68 24 48 C40.17 48 56.34 48 73 48 C73 56.25 73 64.5 73 73 C64.7590559 73.0678797 56.51833056 73.12287568 48.27718163 73.15543652 C44.450144 73.17106708 40.62330821 73.19225718 36.79638672 73.22631836 C33.1005417 73.25900562 29.40489035 73.27687263 25.7089119 73.28463173 C24.30155007 73.29015851 22.89419839 73.30095101 21.4869194 73.31719017 C19.51010294 73.33908635 17.53309004 73.34022644 15.55615234 73.34057617 C13.87070816 73.35056892 13.87070816 73.35056892 12.1512146 73.36076355 C8.40612065 72.93201034 6.13865651 72.09456986 3 70 C0.18725122 65.78517173 -0.37026377 62.45115513 -0.34057617 57.44384766 C-0.34034958 56.16297272 -0.34012299 54.88209778 -0.33988953 53.56240845 C-0.32457312 52.17962284 -0.30892519 50.79684087 -0.29296875 49.4140625 C-0.28736754 47.98774666 -0.28309992 46.56142501 -0.28010559 45.13510132 C-0.268698 41.39658433 -0.23926675 37.65842174 -0.20599365 33.92004395 C-0.17520408 30.09908847 -0.16158135 26.27807525 -0.14648438 22.45703125 C-0.11439241 14.97117455 -0.0616587 7.48568226 0 0 Z " fill="#2BF176" transform="translate(139,288)"/>
<path d="M0 0 C12.29403239 -0.02281352 24.58805017 -0.04106436 36.88209915 -0.05181217 C42.59393363 -0.05697688 48.30575258 -0.06395413 54.01757812 -0.07543945 C103.22250928 -0.17187854 103.22250928 -0.17187854 126 1 C125.596604 1.46688232 125.19320801 1.93376465 124.77758789 2.41479492 C123.97695923 3.34449097 123.97695923 3.34449097 123.16015625 4.29296875 C122.36943726 5.20985474 122.36943726 5.20985474 121.56274414 6.14526367 C120.5755502 7.31691066 119.60920651 8.506744 118.67358398 9.7199707 C115.98690044 13.181404 114.00062387 14.43878093 110 16 C109.21326904 16.99265869 108.42653809 17.98531738 107.6159668 19.00805664 C103.87946066 22.79923127 100.30436717 22.75892133 95.16203308 22.87989807 C93.98063248 22.87699265 92.79923187 22.87408722 91.58203125 22.87109375 C89.6926458 22.90063393 89.6926458 22.90063393 87.76509094 22.93077087 C84.25997722 22.98270433 80.75577235 22.99453023 77.25031281 22.99660492 C74.95664124 23.00006542 72.66318861 23.01270636 70.36956787 23.02813721 C59.65997324 23.09935547 48.95131916 23.09737492 38.24157715 23.06866455 C33.9091035 23.05820764 29.5766234 23.05382041 25.24414062 23.04882812 C16.82940829 23.03828461 8.41471327 23.02078497 0 23 C0 15.41 0 7.82 0 0 Z " fill="#30F863" transform="translate(127,239)"/>
<path d="M0 0 C1.07461739 0.00539291 1.07461739 0.00539291 2.17094421 0.01089478 C2.92211517 0.01074875 3.67328613 0.01060272 4.44721985 0.01045227 C6.94166404 0.01115153 9.43603448 0.01894452 11.9304657 0.02676392 C13.65539509 0.02862805 15.38032501 0.03005197 17.10525513 0.03105164 C21.65418448 0.03487719 26.20308211 0.04470779 30.7519989 0.05575562 C35.39025951 0.06596893 40.02852522 0.07054908 44.66679382 0.07559204 C53.77422967 0.08633003 62.88164192 0.1034069 71.98905945 0.12442017 C71.98905945 0.45442017 71.98905945 0.78442017 71.98905945 1.12442017 C67.03905945 1.45442017 62.08905945 1.78442017 56.98905945 2.12442017 C56.32905945 3.77442017 55.66905945 5.42442017 54.98905945 7.12442017 C54.32905945 7.78442017 53.66905945 8.44442017 52.98905945 9.12442017 C52.49405945 8.62942017 52.49405945 8.62942017 51.98905945 8.12442017 C51.59073914 8.59492798 51.19241882 9.06543579 50.7820282 9.55020142 C50.25222351 10.1728186 49.72241882 10.79543579 49.17655945 11.43692017 C48.39345398 12.35924438 48.39345398 12.35924438 47.5945282 13.30020142 C46.11733475 14.97866696 44.58866814 16.56324051 42.98905945 18.12442017 C43.48405945 19.60942017 43.48405945 19.60942017 43.98905945 21.12442017 C37.02902498 21.14968854 30.06900225 21.16725239 23.1089325 21.17935181 C20.73913633 21.18439358 18.3693433 21.19122682 15.9995575 21.19985962 C12.60151906 21.21193206 9.2035216 21.21764987 5.8054657 21.22207642 C4.7388118 21.2272377 3.6721579 21.23239899 2.57318115 21.23771667 C1.59223984 21.23779221 0.61129852 21.23786774 -0.39936829 21.23794556 C-1.26762741 21.24016617 -2.13588654 21.24238678 -3.03045654 21.24467468 C-5.01094055 21.12442017 -5.01094055 21.12442017 -6.01094055 20.12442017 C-6.10954186 18.72093281 -6.14172992 17.31261539 -6.14375305 15.90567017 C-6.14504211 15.05617798 -6.14633118 14.20668579 -6.1476593 13.33145142 C-6.14379211 12.4381311 -6.13992493 11.54481079 -6.13594055 10.62442017 C-6.13980774 9.73109985 -6.14367493 8.83777954 -6.1476593 7.91738892 C-6.14637024 7.06789673 -6.14508118 6.21840454 -6.14375305 5.34317017 C-6.14262512 4.55877563 -6.14149719 3.7743811 -6.14033508 2.96621704 C-5.86862987 -0.90122476 -3.26483236 0.00691251 0 0 Z " fill="#40FB34" transform="translate(135.0109405517578,239.87557983398438)"/>
<path d="M0 0 C27.72 0 55.44 0 84 0 C84 7.59 84 15.18 84 23 C51 23 18 23 -16 23 C-16 22.67 -16 22.34 -16 22 C12.215 21.505 12.215 21.505 41 21 C41 20.01 41 19.02 41 18 C41.66 18 42.32 18 43 18 C43 18.66 43 19.32 43 20 C46.3028429 18.19647651 46.3028429 18.19647651 47.5 14.4375 C47.995 13.303125 48.49 12.16875 49 11 C49.99 10.67 50.98 10.34 52 10 C55.19804773 7.27225341 55.94460224 6.22159105 57 2 C38.19 1.67 19.38 1.34 0 1 C0 0.67 0 0.34 0 0 Z " fill="#1DEFBD" transform="translate(287,239)"/>
<path d="M0 0 C12.54 0 25.08 0 38 0 C38 0.33 38 0.66 38 1 C33.05 1.33 28.1 1.66 23 2 C22.34 3.65 21.68 5.3 21 7 C20.34 7.66 19.68 8.32 19 9 C18.505 8.505 18.505 8.505 18 8 C17.60167969 8.47050781 17.20335937 8.94101563 16.79296875 9.42578125 C16.26316406 10.04839844 15.73335937 10.67101562 15.1875 11.3125 C14.40439453 12.23482422 14.40439453 12.23482422 13.60546875 13.17578125 C12.12827531 14.85424679 10.59960869 16.43882034 9 18 C9.495 19.485 9.495 19.485 10 21 C-2.87 21 -15.74 21 -29 21 C-29 20.67 -29 20.34 -29 20 C-25.04 20 -21.08 20 -17 20 C-17.33 18.68 -17.66 17.36 -18 16 C-14.25 13 -14.25 13 -12 13 C-11.773125 12.236875 -11.54625 11.47375 -11.3125 10.6875 C-9.70836315 7.40283882 -8.16970738 6.70081859 -5 5 C-4.443125 4.443125 -3.88625 3.88625 -3.3125 3.3125 C-2.6628125 2.6628125 -2.6628125 2.6628125 -2 2 C-1.34 2 -0.68 2 0 2 C0 1.34 0 0.68 0 0 Z " fill="#3AF946" transform="translate(169,240)"/>
<path d="M0 0 C1.921539 0.00022659 1.921539 0.00022659 3.88189697 0.00045776 C5.27510738 0.01067027 6.6683162 0.02110225 8.06152344 0.03173828 C9.4907003 0.03547014 10.91987972 0.0383163 12.34906006 0.04031372 C16.10395415 0.04793659 19.85869263 0.06757339 23.61352539 0.08972168 C27.44773249 0.11020919 31.28196483 0.11932164 35.11621094 0.12939453 C42.63451914 0.15082069 50.15266713 0.18599171 57.67089844 0.22705078 C57.67089844 8.14705078 57.67089844 16.06705078 57.67089844 24.22705078 C41.83089844 24.22705078 25.99089844 24.22705078 9.67089844 24.22705078 C9.6825 27.75263672 9.69410156 31.27822266 9.70605469 34.91064453 C9.71384407 38.30948802 9.71992151 41.70833052 9.72583008 45.10717773 C9.73087185 47.4769739 9.73770509 49.84676693 9.74633789 52.21655273 C9.75841034 55.61459117 9.76412815 59.01258863 9.76855469 62.41064453 C9.77371597 63.47729843 9.77887726 64.54395233 9.78419495 65.64292908 C9.78430824 67.11434105 9.78430824 67.11434105 9.78442383 68.61547852 C9.78664444 69.48373764 9.78886505 70.35199677 9.79115295 71.24656677 C9.67089844 73.22705078 9.67089844 73.22705078 8.67089844 74.22705078 C6.89018598 74.31431301 5.10606704 74.33404119 3.32324219 74.32470703 C2.24365234 74.32148438 1.1640625 74.31826172 0.05175781 74.31494141 C-1.08455078 74.3065625 -2.22085938 74.29818359 -3.39160156 74.28955078 C-4.53177734 74.28503906 -5.67195312 74.28052734 -6.84667969 74.27587891 C-9.67420508 74.26404826 -12.50162796 74.24756488 -15.32910156 74.22705078 C-15.35226036 65.8039189 -15.37003473 57.3808003 -15.38091373 48.95764446 C-15.3861348 45.04653996 -15.39321841 41.13545721 -15.40454102 37.22436523 C-15.41539741 33.45074563 -15.42138426 29.67714697 -15.42397881 25.90351295 C-15.42582808 24.46299726 -15.42943918 23.02248273 -15.43483162 21.58197594 C-15.44207842 19.56613659 -15.44250993 17.5502762 -15.44262695 15.53442383 C-15.44484756 14.38636765 -15.44706818 13.23831146 -15.44935608 12.0554657 C-15.30204432 8.590658 -14.81890322 6.78441129 -12.51660156 4.16455078 C-8.41410613 0.53091197 -5.4650417 -0.02151591 0 0 Z M-5.32910156 1.22705078 C-5.65910156 1.88705078 -5.98910156 2.54705078 -6.32910156 3.22705078 C-6.96847656 3.33017578 -7.60785156 3.43330078 -8.26660156 3.53955078 C-8.94722656 3.76642578 -9.62785156 3.99330078 -10.32910156 4.22705078 C-11.56200357 6.6840984 -11.56200357 6.6840984 -12.32910156 9.22705078 C-12.65910156 9.55705078 -12.98910156 9.88705078 -13.32910156 10.22705078 C-13.42789984 11.91375656 -13.4570911 13.6045932 -13.45849609 15.29418945 C-13.46164825 16.37588913 -13.46480042 17.45758881 -13.4680481 18.57206726 C-13.46602386 19.75114151 -13.46399963 20.93021576 -13.46191406 22.14501953 C-13.46287079 23.35015701 -13.46382751 24.55529449 -13.46481323 25.79695129 C-13.46549554 28.35511324 -13.46363773 30.9132769 -13.45947266 33.47143555 C-13.45414829 37.38024828 -13.45940393 41.28894488 -13.46582031 45.19775391 C-13.46515908 47.68017603 -13.463877 50.16259809 -13.46191406 52.64501953 C-13.46393829 53.81397263 -13.46596252 54.98292572 -13.4680481 56.18730164 C-13.46489594 57.28476212 -13.46174377 58.3822226 -13.45849609 59.51293945 C-13.4577005 60.47366867 -13.45690491 61.43439789 -13.45608521 62.42424011 C-13.36009319 65.77855377 -13.36009319 65.77855377 -12.32910156 71.22705078 C-6.05910156 71.22705078 0.21089844 71.22705078 6.67089844 71.22705078 C7.00089844 55.71705078 7.33089844 40.20705078 7.67089844 24.22705078 C11.1874608 23.52373831 13.72669986 23.10332158 17.18579102 23.11352539 C18.04630569 23.11360092 18.90682037 23.11367645 19.79341125 23.11375427 C20.70817734 23.11891556 21.62294342 23.12407684 22.56542969 23.12939453 C23.51278488 23.13080948 24.46014008 23.13222443 25.436203 23.13368225 C28.45196739 23.13926467 31.46765662 23.15181396 34.48339844 23.16455078 C36.53222549 23.16956805 38.58105371 23.17413056 40.62988281 23.17822266 C45.6436067 23.18837601 50.65716877 23.2079549 55.67089844 23.22705078 C55.67089844 16.29705078 55.67089844 9.36705078 55.67089844 2.22705078 C41.91553773 1.3859671 28.26115489 1.10110295 14.48339844 1.16455078 C12.54655066 1.16958493 10.60970159 1.17414439 8.67285156 1.17822266 C4.00550087 1.18905568 -0.66178528 1.20621025 -5.32910156 1.22705078 Z " fill="#44B62A" transform="translate(154.3291015625,139.77294921875)"/>
<path d="M0 0 C9.57 0 19.14 0 29 0 C28.34 1.65 27.68 3.3 27 5 C27.99 5.495 27.99 5.495 29 6 C30.26229508 10.47540984 30.26229508 10.47540984 29 13 C28.92517756 14.52045409 28.91356044 16.04425058 28.93408203 17.56640625 C28.94384064 18.51499512 28.95359924 19.46358398 28.96365356 20.44091797 C28.97822601 21.47104004 28.99279846 22.50116211 29.0078125 23.5625 C29.02534566 25.7434848 29.0422523 27.9244747 29.05859375 30.10546875 C29.08942097 33.54392666 29.12475763 36.98212827 29.17138672 40.42041016 C29.21404485 43.73863793 29.23726776 47.05657103 29.2578125 50.375 C29.28574387 51.89589233 29.28574387 51.89589233 29.3142395 53.44750977 C29.34186355 61.23507438 28.39147026 68.41279461 24 75 C21 75.625 21 75.625 18 76 C17.01 76.495 17.01 76.495 16 77 C13.93707015 77.09160337 11.87111115 77.1175118 9.80615234 77.11352539 C8.50495453 77.11344986 7.20375671 77.11337433 5.86312866 77.11329651 C4.43739789 77.10818947 3.0116675 77.10297347 1.5859375 77.09765625 C0.13148039 77.09579147 -1.32297734 77.09436785 -2.7774353 77.09336853 C-6.60792776 77.08954805 -10.43838237 77.07972176 -14.26885986 77.06866455 C-18.17663053 77.05844035 -22.08440731 77.05386874 -25.9921875 77.04882812 C-33.6614756 77.03809908 -41.3307325 77.02102828 -49 77 C-50.3308911 74.33821779 -50.11268993 72.31260604 -50.09765625 69.3359375 C-50.09443359 68.21445312 -50.09121094 67.09296875 -50.08789062 65.9375 C-50.07951172 64.761875 -50.07113281 63.58625 -50.0625 62.375 C-50.05798828 61.19164062 -50.05347656 60.00828125 -50.04882812 58.7890625 C-50.03701467 55.85932493 -50.02054258 52.92968728 -50 50 C-49.34 50 -48.68 50 -48 50 C-48 58.25 -48 66.5 -48 75 C-39.70708452 74.9145311 -31.41438919 74.82079851 -23.12174511 74.71247292 C-19.27122292 74.66250546 -15.42072822 74.6161756 -11.57006836 74.578125 C-7.85466361 74.54127764 -4.13948863 74.49491948 -0.42428017 74.44193649 C0.99386252 74.42338956 2.41205446 74.40828267 3.83027077 74.39665604 C5.81508633 74.3797995 7.79977538 74.34962925 9.78442383 74.31884766 C10.91471512 74.30552399 12.04500641 74.29220032 13.20954895 74.2784729 C16.209067 74.19958582 16.209067 74.19958582 19 72 C19.99 72 20.98 72 22 72 C24.66367709 64.99978287 24.25334112 57.92866513 24.1953125 50.53515625 C24.19157708 49.1326874 24.18873261 47.73021593 24.18673706 46.32774353 C24.17914221 42.65673473 24.15952998 38.98588705 24.1373291 35.31494141 C24.11678072 31.56089456 24.10771621 27.80682139 24.09765625 24.05273438 C24.07627963 16.70174136 24.04113196 9.35091388 24 2 C16.08 2 8.16 2 0 2 C0 1.34 0 0.68 0 0 Z " fill="#03201E" transform="translate(334,286)"/>
<path d="M0 0 C0.33 0 0.66 0 1 0 C1 10.23 1 20.46 1 31 C-9.23 31 -19.46 31 -30 31 C-26.12840749 28.41893833 -22.00406164 26.54361287 -17.8125 24.53515625 C-15.34341932 23.18744971 -13.90453457 21.99380963 -12 20 C-11.34 20 -10.68 20 -10 20 C-10 19.34 -10 18.68 -10 18 C-9.34 18 -8.68 18 -8 18 C-7.72285156 17.443125 -7.44570313 16.88625 -7.16015625 16.3125 C-6.36372379 14.72499827 -5.55855278 13.1418596 -4.74609375 11.5625 C-4.31425781 10.716875 -3.88242187 9.87125 -3.4375 9 C-3.00308594 8.154375 -2.56867188 7.30875 -2.12109375 6.4375 C-1.12654496 4.27513608 -0.47847721 2.32249614 0 0 Z " fill="#4C6971" transform="translate(499,469)"/>
<path d="M0 0 C9.57 0 19.14 0 29 0 C29 10.23 29 20.46 29 31 C27.87982777 28.75965553 26.7767045 26.50985602 25.73828125 24.23046875 C19.7149898 11.3752796 12.50210446 6.70484378 0 1 C0 0.67 0 0.34 0 0 Z " fill="#4C6971" transform="translate(471,0)"/>
<path d="M0 0 C1.79959084 2.69938626 3.21688283 5.36517289 4.6875 8.25 C10.19164208 18.26833054 16.70639965 22.31053186 27 27 C28.32 27.66 29.64 28.32 31 29 C20.77 29 10.54 29 0 29 C0 19.43 0 9.86 0 0 Z " fill="#4B6870" transform="translate(0,471)"/>
<path d="M0 0 C9.57 0 19.14 0 29 0 C26.44163565 1.70557623 24.16259328 2.8279944 21.375 4.0625 C12.59305268 8.44706348 6.91952455 14.92365424 2.97265625 23.8359375 C2 26 2 26 0 29 C0 19.43 0 9.86 0 0 Z " fill="#4C6971" transform="translate(0,0)"/>
<path d="M0 0 C1.02996094 -0.00128906 2.05992187 -0.00257813 3.12109375 -0.00390625 C4.74724609 0.00189453 4.74724609 0.00189453 6.40625 0.0078125 C7.49035156 0.00394531 8.57445312 0.00007813 9.69140625 -0.00390625 C10.72136719 -0.00261719 11.75132812 -0.00132812 12.8125 0 C14.24045898 0.00169189 14.24045898 0.00169189 15.69726562 0.00341797 C17.90625 0.1328125 17.90625 0.1328125 18.90625 1.1328125 C19.01075183 3.06972753 19.04480352 5.01047485 19.05151367 6.95019531 C19.05789352 8.1952887 19.06427338 9.44038208 19.07084656 10.72320557 C19.07237562 12.09411582 19.07348937 13.46502659 19.07421875 14.8359375 C19.07743065 16.23500605 19.08079467 17.63407426 19.08430481 19.03314209 C19.0903043 21.97213519 19.09214401 24.91109886 19.09155273 27.85009766 C19.09145137 31.6106193 19.10507309 35.37095104 19.12232494 39.13142776 C19.1334649 42.02426005 19.13547129 44.91704684 19.13494301 47.80989838 C19.13612129 49.19573366 19.14053456 50.58157018 19.14827538 51.96738434 C19.15810956 53.91084855 19.15392413 55.85436828 19.14916992 57.79785156 C19.15059494 58.90292053 19.15201996 60.0079895 19.15348816 61.14654541 C18.90172501 64.18746765 18.19316346 66.38331882 16.90625 69.1328125 C15.79626408 65.80285474 15.82254198 63.42252182 15.88452148 59.91723633 C15.90461777 58.6361348 15.92471405 57.35503326 15.94541931 56.03511047 C15.97261571 54.63668605 15.99992656 53.23826386 16.02734375 51.83984375 C16.05164967 50.40924332 16.075493 48.97863496 16.09889221 47.54801941 C16.16168622 43.78487102 16.23076605 40.02186321 16.30114746 36.2588501 C16.37187326 32.4180745 16.4366648 28.57719932 16.50195312 24.73632812 C16.63090508 17.20171278 16.76649656 9.66723606 16.90625 2.1328125 C13.76003318 2.27103449 10.61439434 2.41966334 7.46875 2.5703125 C6.57091797 2.60962891 5.67308594 2.64894531 4.74804688 2.68945312 C3.89404297 2.73134766 3.04003906 2.77324219 2.16015625 2.81640625 C1.36939697 2.85306396 0.5786377 2.88972168 -0.23608398 2.92749023 C-2.10776441 2.93844507 -2.10776441 2.93844507 -3.09375 4.1328125 C-3.21572808 5.51332108 -3.27143899 6.89978897 -3.29907227 8.28540039 C-3.31901749 9.16623795 -3.33896271 10.0470755 -3.35951233 10.9546051 C-3.37622482 11.91189011 -3.39293732 12.86917511 -3.41015625 13.85546875 C-3.43093735 14.83067978 -3.45171844 15.80589081 -3.47312927 16.81065369 C-3.53873412 19.9387988 -3.59756028 23.06703072 -3.65625 26.1953125 C-3.69942483 28.310556 -3.74303877 30.42579059 -3.78710938 32.54101562 C-3.89442655 37.73818837 -3.9961722 42.93544827 -4.09375 48.1328125 C-5.08375 48.6278125 -5.08375 48.6278125 -6.09375 49.1328125 C-6.1190189 42.31519356 -6.13658244 35.49758661 -6.14868164 28.67993164 C-6.15372333 26.35863799 -6.16055651 24.03734753 -6.16918945 21.71606445 C-6.18126225 18.38752455 -6.18697979 15.05902648 -6.19140625 11.73046875 C-6.19656754 10.68568863 -6.20172882 9.64090851 -6.20704651 8.56446838 C-6.20712204 7.60354782 -6.20719757 6.64262726 -6.20727539 5.65258789 C-6.209496 4.80209366 -6.21171661 3.95159943 -6.21400452 3.07533264 C-5.96879435 -0.88564694 -3.36991732 0.00399279 0 0 Z " fill="#1EB3A7" transform="translate(340.09375,286.8671875)"/>
<path d="M0 0 C7.92 0 15.84 0 24 0 C24 15.84 24 31.68 24 48 C23.67 48 23.34 48 23 48 C22.35295081 32.65495308 21.87712517 17.35935393 22 2 C15.73 2 9.46 2 3 2 C3 22.46 3 42.92 3 64 C3.66 64 4.32 64 5 64 C5 65.65 5 67.3 5 69 C5.66 69 6.32 69 7 69 C7 69.66 7 70.32 7 71 C5.1875 70.875 5.1875 70.875 3 70 C0.36608864 65.68752961 -0.3703162 62.45999863 -0.34057617 57.44384766 C-0.34034958 56.16297272 -0.34012299 54.88209778 -0.33988953 53.56240845 C-0.32457312 52.17962284 -0.30892519 50.79684087 -0.29296875 49.4140625 C-0.28736754 47.98774666 -0.28309992 46.56142501 -0.28010559 45.13510132 C-0.268698 41.39658433 -0.23926675 37.65842174 -0.20599365 33.92004395 C-0.17520408 30.09908847 -0.16158135 26.27807525 -0.14648438 22.45703125 C-0.11439241 14.97117455 -0.0616587 7.48568226 0 0 Z " fill="#42CA5C" transform="translate(139,288)"/>
<path d="M0 0 C8.58 0 17.16 0 26 0 C27.18695418 2.37390836 27.12075833 3.80244951 27.11352539 6.44970703 C27.11340454 7.38339111 27.11328369 8.3170752 27.11315918 9.27905273 C27.10548523 10.75353882 27.10548523 10.75353882 27.09765625 12.2578125 C27.09664917 13.16007568 27.09564209 14.06233887 27.09460449 14.99194336 C27.08936358 18.36964179 27.07540236 21.74732214 27.0625 25.125 C27.041875 32.67375 27.02125 40.2225 27 48 C50.265 48.495 50.265 48.495 74 49 C74 49.33 74 49.66 74 50 C57.83 50 41.66 50 25 50 C25 34.16 25 18.32 25 2 C17.08 2 9.16 2 1 2 C1.33 23.78 1.66 45.56 2 68 C1.34 68 0.68 68 0 68 C0 45.56 0 23.12 0 0 Z " fill="#10501A" transform="translate(138,286)"/>
<path d="M0 0 C0.99 0.495 0.99 0.495 2 1 C2 22.78 2 44.56 2 67 C-6.58 67 -15.16 67 -24 67 C-24 50.5 -24 34 -24 17 C-39.84 17 -55.68 17 -72 17 C-72 16.67 -72 16.34 -72 16 C-55.5 16 -39 16 -22 16 C-22 32.17 -22 48.34 -22 65 C-14.41 65 -6.82 65 1 65 C0.67 43.55 0.34 22.1 0 0 Z " fill="#1A804B" transform="translate(358,148)"/>
<path d="M0 0 C8.31002413 -0.04513676 16.61995339 -0.08185017 24.93006706 -0.10362434 C28.78854797 -0.11407343 32.64694085 -0.128253 36.50537109 -0.15087891 C40.22712192 -0.1725674 43.94878794 -0.18456014 47.67059708 -0.18975449 C49.09241191 -0.19345745 50.51422197 -0.20068819 51.93600082 -0.21146011 C53.92327114 -0.22592119 55.91062631 -0.22681646 57.89794922 -0.22705078 C59.03046112 -0.231492 60.16297302 -0.23593323 61.32980347 -0.24050903 C64 0 64 0 66 2 C47.52 2.33 29.04 2.66 10 3 C10 3.66 10 4.32 10 5 C8.68 4.67 7.36 4.34 6 4 C6.99 4 7.98 4 9 4 C9 3.34 9 2.68 9 2 C7.02 2.33 5.04 2.66 3 3 C3.33 4.98 3.66 6.96 4 9 C3.34 9 2.68 9 2 9 C2 13.29 2 17.58 2 22 C3.32 21.67 4.64 21.34 6 21 C8.45687806 20.905718 10.91631848 20.87009245 13.375 20.875 C15.30472656 20.87113281 15.30472656 20.87113281 17.2734375 20.8671875 C21 21 21 21 23.796875 21.47265625 C28.47010917 22.24203017 33.14755977 22.36712476 37.875 22.5625 C39.33679688 22.62727539 39.33679688 22.62727539 40.828125 22.69335938 C43.21862802 22.79882274 45.60922444 22.90094175 48 23 C48 23.33 48 23.66 48 24 C32.16 24 16.32 24 0 24 C0 16.08 0 8.16 0 0 Z " fill="#42DE6B" transform="translate(286,140)"/>
<path d="M0 0 C32.34 0 64.68 0 98 0 C98 0.33 98 0.66 98 1 C50.975 1.495 50.975 1.495 3 2 C3 8.27 3 14.54 3 21 C26.76 21.33 50.52 21.66 75 22 C75 22.33 75 22.66 75 23 C50.25 23 25.5 23 0 23 C0 15.41 0 7.82 0 0 Z " fill="#57F05C" transform="translate(127,239)"/>
<path d="M0 0 C0.625 1.875 0.625 1.875 1 4 C0.34 4.66 -0.32 5.32 -1 6 C-1.29332671 8.67104349 -1.29332671 8.67104349 -1.22705078 11.82666016 C-1.22689972 13.04777496 -1.22674866 14.26888977 -1.22659302 15.52700806 C-1.21637903 16.86436118 -1.20594702 18.20171265 -1.1953125 19.5390625 C-1.1915828 20.90383701 -1.18873563 22.26861419 -1.18673706 23.63339233 C-1.17909714 27.22720723 -1.15944572 30.82086073 -1.1373291 34.41461182 C-1.11687832 38.08107317 -1.107737 41.74756057 -1.09765625 45.4140625 C-1.07620001 52.60945714 -1.04101512 59.8046854 -1 67 C5.27 67 11.54 67 18 67 C17.67 64.36 17.34 61.72 17 59 C16.95068421 57.62716848 16.93284247 56.25187188 16.97827148 54.87890625 C16.99836777 54.17878418 17.01846405 53.47866211 17.03916931 52.75732422 C17.06620438 52.03303223 17.09323944 51.30874023 17.12109375 50.5625 C17.14470474 49.79695801 17.16831573 49.03141602 17.19264221 48.24267578 C17.26843346 45.82822077 17.35281388 43.41415768 17.4375 41 C17.49080567 39.35027878 17.54354527 37.70053916 17.59570312 36.05078125 C17.72393203 32.03361205 17.85985793 28.01677052 18 24 C18.33 24 18.66 24 19 24 C19 38.85 19 53.7 19 69 C11.74 69 4.48 69 -3 69 C-3.06770118 60.298836 -3.12277264 51.59784612 -3.15543652 42.89647865 C-3.17111131 38.85634219 -3.19238225 34.81639481 -3.22631836 30.77636719 C-3.25884776 26.87954213 -3.27683934 22.98289926 -3.28463173 19.08594894 C-3.29018685 17.59713242 -3.30103436 16.10832618 -3.31719017 14.61958694 C-3.33888007 12.53865034 -3.34197061 10.45847235 -3.34057617 8.37744141 C-3.34723801 7.19163483 -3.35389984 6.00582825 -3.36076355 4.78408813 C-3.24171158 3.86533905 -3.12265961 2.94658997 -3 2 C-2.01 1.34 -1.02 0.68 0 0 Z " fill="#57EE35" transform="translate(143,144)"/>
<path d="M0 0 C1.32 0.33 2.64 0.66 4 1 C4 1.99 4 2.98 4 4 C4.66 4 5.32 4 6 4 C7.05866606 7.45833754 7.12073782 10.63108902 7.11352539 14.23730469 C7.11344986 15.49830994 7.11337433 16.75931519 7.11329651 18.05853271 C7.10819028 19.42964721 7.1029743 20.80076131 7.09765625 22.171875 C7.09579028 23.57863311 7.09436722 24.98539188 7.09336853 26.39215088 C7.08955744 30.08780727 7.0797392 33.78342413 7.06866455 37.47906494 C7.05842014 41.25296494 7.05386442 45.02687135 7.04882812 48.80078125 C7.03811563 56.20054091 7.02053027 63.60025987 7 71 C-0.59 71 -8.18 71 -16 71 C-16 70.67 -16 70.34 -16 70 C-9.07 70 -2.14 70 5 70 C5 48.55 5 27.1 5 5 C3.68 4.67 2.36 4.34 1 4 C0.67 2.68 0.34 1.36 0 0 Z " fill="#39C18C" transform="translate(352,142)"/>
<path d="M0 0 C2.76375 0.185625 5.5275 0.37125 8.375 0.5625 C8.375 9.4725 8.375 18.3825 8.375 27.5625 C8.045 27.5625 7.715 27.5625 7.375 27.5625 C6.04242597 9.70600797 6.04242597 9.70600797 7.375 1.5625 C5.395 1.5625 3.415 1.5625 1.375 1.5625 C2.035 3.2125 2.695 4.8625 3.375 6.5625 C-0.25 9.5625 -0.25 9.5625 -3.625 9.5625 C-3.625 7.5825 -3.625 5.6025 -3.625 3.5625 C-4.285 3.5625 -4.945 3.5625 -5.625 3.5625 C-5.625 2.9025 -5.625 2.2425 -5.625 1.5625 C-6.615 2.2225 -7.605 2.8825 -8.625 3.5625 C-7.965 3.8925 -7.305 4.2225 -6.625 4.5625 C-6.625 6.2125 -6.625 7.8625 -6.625 9.5625 C-7.945 9.8925 -9.265 10.2225 -10.625 10.5625 C-10.625 13.2025 -10.625 15.8425 -10.625 18.5625 C-10.955 18.5625 -11.285 18.5625 -11.625 18.5625 C-11.65207139 16.31256641 -11.67142829 14.06253905 -11.6875 11.8125 C-11.69910156 10.55953125 -11.71070313 9.3065625 -11.72265625 8.015625 C-11.58200774 3.04229364 -11.58200774 3.04229364 -10.625 0.5625 C-7.3019839 -1.09900805 -3.62257099 -0.25549365 0 0 Z " fill="#3AF65A" transform="translate(152.625,289.4375)"/>
<path d="M0 0 C15.84 0 31.68 0 48 0 C48 0.33 48 0.66 48 1 C32.49 1 16.98 1 1 1 C1 8.59 1 16.18 1 24 C8.81548451 23.93689317 16.63061485 23.86132397 24.44573975 23.76428509 C28.07529445 23.71970595 31.70474014 23.68042326 35.33447266 23.65356445 C38.84250351 23.62740597 42.35011198 23.58691734 45.85787964 23.53681374 C47.83622646 23.51220113 49.81473713 23.50213277 51.79321289 23.49235535 C58.55764349 23.38266384 63.85264923 22.89505171 70 20 C70 20.66 70 21.32 70 22 C65.60734794 24.50767298 62.4880426 25.37048247 57.44384766 25.34057617 C55.52253525 25.34023628 55.52253525 25.34023628 53.56240845 25.33988953 C52.17962284 25.32457312 50.79684087 25.30892519 49.4140625 25.29296875 C47.98774666 25.28736754 46.56142501 25.28309992 45.13510132 25.28010559 C41.39658433 25.268698 37.65842174 25.23926675 33.92004395 25.20599365 C30.09908847 25.17520408 26.27807525 25.16158135 22.45703125 25.14648438 C14.97117455 25.11439241 7.48568226 25.0616587 0 25 C0 16.75 0 8.5 0 0 Z " fill="#1DA59F" transform="translate(286,336)"/>
<path d="M0 0 C6.6 0 13.2 0 20 0 C20 7.26 20 14.52 20 22 C-0.46 22 -20.92 22 -42 22 C-42 21.67 -42 21.34 -42 21 C-34.47239374 20.84626934 -26.94469574 20.69808778 -19.41684151 20.5570364 C-15.92155085 20.4913688 -12.42631943 20.42377316 -8.93115234 20.35180664 C-4.91513481 20.26919947 -0.89900121 20.19491484 3.1171875 20.12109375 C4.37554413 20.09405869 5.63390076 20.06702362 6.9303894 20.03916931 C8.09144196 20.01907303 9.25249451 19.99897675 10.44873047 19.97827148 C11.47465302 19.95828598 12.50057556 19.93830048 13.55758667 19.91770935 C16 20 16 20 18 21 C18.495 14.565 18.495 14.565 19 8 C18.34 8 17.68 8 17 8 C16.01 6.02 15.02 4.04 14 2 C13.32453125 2.02320313 12.6490625 2.04640625 11.953125 2.0703125 C10.61507812 2.09738281 10.61507812 2.09738281 9.25 2.125 C7.92742187 2.15980469 7.92742187 2.15980469 6.578125 2.1953125 C4 2 4 2 0 0 Z " fill="#3AF19E" transform="translate(191,338)"/>
<path d="M0 0 C0 0.99 0 1.98 0 3 C-3.50123146 4.16707715 -6.73097377 4.22891871 -10.37890625 4.31640625 C-11.1056102 4.33718735 -11.83231415 4.35796844 -12.58103943 4.37937927 C-14.12175778 4.42260859 -15.66253871 4.46365482 -17.20336914 4.50268555 C-19.52960916 4.56166607 -21.85560427 4.62687295 -24.18164062 4.69335938 C-31.78899573 4.9045641 -39.38911023 5.05322301 -47 5 C-46.90460938 6.10859375 -46.80921875 7.2171875 -46.7109375 8.359375 C-46.5983609 9.82287083 -46.48641476 11.28641526 -46.375 12.75 C-46.31054688 13.47960937 -46.24609375 14.20921875 -46.1796875 14.9609375 C-45.86786987 19.24842986 -46.01929427 21.03858853 -48 25 C-48 17.41 -48 9.82 -48 2 C-42.92818359 1.90912109 -42.92818359 1.90912109 -37.75390625 1.81640625 C-34.49403523 1.75467111 -31.23420082 1.69126097 -27.97436523 1.62768555 C-25.70161164 1.58426335 -23.42882387 1.54259384 -21.15600586 1.50268555 C-17.89686768 1.44515881 -14.63790269 1.38141448 -11.37890625 1.31640625 C-10.35599991 1.29969376 -9.33309357 1.28298126 -8.27919006 1.26576233 C-7.33829025 1.24581711 -6.39739044 1.22587189 -5.42797852 1.20532227 C-4.59524918 1.18977798 -3.76251984 1.1742337 -2.90455627 1.15821838 C-0.99033415 1.20571386 -0.99033415 1.20571386 0 0 Z " fill="#1FDFCA" transform="translate(335,335)"/>
<path d="M0 0 C0.78552246 0.01047363 1.57104492 0.02094727 2.38037109 0.03173828 C3.23115234 0.03818359 4.08193359 0.04462891 4.95849609 0.05126953 C6.29267578 0.07640625 6.29267578 0.07640625 7.65380859 0.10205078 C8.99958984 0.11558594 8.99958984 0.11558594 10.37255859 0.12939453 C12.59142182 0.15299946 14.8101483 0.18887116 17.02880859 0.22705078 C17.02880859 5.83705078 17.02880859 11.44705078 17.02880859 17.22705078 C16.69880859 17.22705078 16.36880859 17.22705078 16.02880859 17.22705078 C16.02880859 11.94705078 16.02880859 6.66705078 16.02880859 1.22705078 C15.03880859 1.55705078 14.04880859 1.88705078 13.02880859 2.22705078 C12.16255859 2.18580078 11.29630859 2.14455078 10.40380859 2.10205078 C5.98275334 2.10757128 5.98275334 2.10757128 -1.97119141 5.22705078 C-1.97119141 18.42705078 -1.97119141 31.62705078 -1.97119141 45.22705078 C-2.96119141 45.72205078 -2.96119141 45.72205078 -3.97119141 46.22705078 C-4.02179021 39.99743101 -4.05688203 33.76786398 -4.08105469 27.53808594 C-4.09112892 25.41762308 -4.10478874 23.29717417 -4.12207031 21.17675781 C-4.1462563 18.13359135 -4.1576601 15.09060812 -4.16650391 12.04736328 C-4.17682648 11.09523956 -4.18714905 10.14311584 -4.19778442 9.16213989 C-4.19793549 8.28137787 -4.19808655 7.40061584 -4.19824219 6.49316406 C-4.20268341 5.71595001 -4.20712463 4.93873596 -4.21170044 4.13796997 C-3.8580591 1.32817937 -2.80202619 0.32275011 0 0 Z " fill="#1DECD6" transform="translate(339.97119140625,288.77294921875)"/>
<path d="M0 0 C0.33 0 0.66 0 1 0 C1 8.91 1 17.82 1 27 C25.255 27.495 25.255 27.495 50 28 C50 28.33 50 28.66 50 29 C43.0592193 29.36123257 36.11757853 29.69865051 29.17480469 30.01928711 C26.81158052 30.13127208 24.44861106 30.24877026 22.0859375 30.37182617 C18.69582616 30.54744645 15.30530236 30.70341943 11.9140625 30.85546875 C10.85256989 30.91470016 9.79107727 30.97393158 8.69741821 31.03495789 C7.22611954 31.09536003 7.22611954 31.09536003 5.72509766 31.15698242 C4.85905914 31.19917404 3.99302063 31.24136566 3.10073853 31.28483582 C2.40749481 31.19084 1.7142511 31.09684418 1 31 C-1.42451075 27.36323388 -1.17129076 25.88552585 -0.9765625 21.58203125 C-0.925 20.32841797 -0.8734375 19.07480469 -0.8203125 17.78320312 C-0.75585938 16.47287109 -0.69140625 15.16253906 -0.625 13.8125 C-0.56674184 12.47725536 -0.50943894 11.14196867 -0.453125 9.80664062 C-0.31148964 6.5372245 -0.16005905 3.26855758 0 0 Z " fill="#3BE17D" transform="translate(161,309)"/>
<path d="M0 0 C0.33 0 0.66 0 1 0 C1 3.96 1 7.92 1 12 C-13.19 12 -27.38 12 -42 12 C-42 11.67 -42 11.34 -42 11 C-31.44 10.67 -20.88 10.34 -10 10 C-9.34 8.02 -8.68 6.04 -8 4 C-7.34 4.33 -6.68 4.66 -6 5 C-6 5.99 -6 6.98 -6 8 C-5.34 7.67 -4.68 7.34 -4 7 C-3.34786708 4.97536745 -3.34786708 4.97536745 -3 3 C-2.34 3 -1.68 3 -1 3 C-0.67 2.01 -0.34 1.02 0 0 Z " fill="#4BF92A" transform="translate(209,151)"/>
<path d="M0 0 C0.99 0.495 0.99 0.495 2 1 C2 1.66 2 2.32 2 3 C6.32301692 4.63570447 9.94272564 5.26414299 14.55615234 5.31884766 C15.83702728 5.33871735 17.11790222 5.35858704 18.43759155 5.37905884 C19.82037178 5.39093252 21.20315384 5.40259553 22.5859375 5.4140625 C24.01226909 5.43278979 25.43858979 5.45236435 26.86489868 5.4727478 C30.60318556 5.52391041 34.3415083 5.56362055 38.07995605 5.60089111 C41.90104934 5.64103078 45.72199551 5.69207748 49.54296875 5.7421875 C57.02854463 5.83875862 64.51419214 5.92322297 72 6 C71.67 6.66 71.34 7.32 71 8 C70.33458694 7.99777939 69.66917389 7.99555878 68.9835968 7.99327087 C62.05685971 7.97114426 55.13013266 7.95606252 48.20336914 7.94506836 C45.61840405 7.94004019 43.03344181 7.93321681 40.44848633 7.92456055 C36.7325775 7.91242871 33.01670628 7.9067565 29.30078125 7.90234375 C28.14540359 7.89718246 26.99002594 7.89202118 25.79963684 7.88670349 C24.71889389 7.88662796 23.63815094 7.88655243 22.5246582 7.88647461 C21.10235649 7.88314369 21.10235649 7.88314369 19.65132141 7.87974548 C16.98326826 7.92763819 16.98326826 7.92763819 14.36174011 8.56568909 C11.14722821 9.15682 8.99013923 8.18214807 6 7 C6 6.34 6 5.68 6 5 C4.35 4.67 2.7 4.34 1 4 C0.67 2.68 0.34 1.36 0 0 Z " fill="#001201" transform="translate(140,355)"/>
<path d="M0 0 C2.87874331 4.31811496 2.53778541 8.34777275 2.75 13.4375 C2.80542969 14.39205078 2.86085938 15.34660156 2.91796875 16.33007812 C2.96050781 17.25111328 3.00304687 18.17214844 3.046875 19.12109375 C3.08651367 19.9608374 3.12615234 20.80058105 3.16699219 21.66577148 C3 24 3 24 1 28 C7.93 28.495 7.93 28.495 15 29 C15 29.33 15 29.66 15 30 C10.05 30 5.1 30 0 30 C0 20.1 0 10.2 0 0 Z " fill="#30EF9B" transform="translate(336,182)"/>
<path d="M0 0 C1.80141449 0.00022659 1.80141449 0.00022659 3.63922119 0.00045776 C5.57689362 0.01594162 5.57689362 0.01594162 7.55371094 0.03173828 C8.89320667 0.03547044 10.23270514 0.03831646 11.57220459 0.04031372 C15.09036859 0.04793421 18.60836633 0.06756892 22.12646484 0.08972168 C25.71937817 0.11021435 29.31231846 0.11932274 32.90527344 0.12939453 C39.94961211 0.15081644 46.99383814 0.18493314 54.03808594 0.22705078 C54.03808594 0.55705078 54.03808594 0.88705078 54.03808594 1.22705078 C34.56808594 1.22705078 15.09808594 1.22705078 -4.96191406 1.22705078 C-5.29191406 2.21705078 -5.62191406 3.20705078 -5.96191406 4.22705078 C-7.28191406 4.22705078 -8.60191406 4.22705078 -9.96191406 4.22705078 C-9.96191406 3.56705078 -9.96191406 2.90705078 -9.96191406 2.22705078 C-6.55952568 0.16600454 -3.9452122 -0.01657652 0 0 Z " fill="#58D12D" transform="translate(153.9619140625,139.77294921875)"/>
<path d="M0 0 C1.68703631 3.69541288 1.18391985 8.12239262 1.1875 12.125 C1.19974609 12.85332031 1.21199219 13.58164063 1.22460938 14.33203125 C1.22985188 16.22282978 1.12233385 18.11315581 1 20 C0.34 20.66 -0.32 21.32 -1 22 C-1.92188461 19.23434618 -2.11785222 17.61716298 -2.09765625 14.76953125 C-2.09515869 14.04612549 -2.09266113 13.32271973 -2.09008789 12.57739258 C-2.08098389 11.66497803 -2.07187988 10.75256348 -2.0625 9.8125 C-2.041875 6.904375 -2.02125 3.99625 -2 1 C-13.385 0.505 -13.385 0.505 -25 0 C-25 -0.33 -25 -0.66 -25 -1 C-21.5842767 -1.22634311 -18.16752678 -1.42792113 -14.75 -1.625 C-13.29787109 -1.72167969 -13.29787109 -1.72167969 -11.81640625 -1.8203125 C-10.88183594 -1.871875 -9.94726562 -1.9234375 -8.984375 -1.9765625 C-8.12553711 -2.02893066 -7.26669922 -2.08129883 -6.38183594 -2.13525391 C-3.74178855 -1.98533732 -2.22026006 -1.41121667 0 0 Z " fill="#35F086" transform="translate(338,163)"/>
<path d="M0 0 C0.33 0 0.66 0 1 0 C1.16813487 4.56244714 1.33425255 9.12496556 1.5 13.6875 C1.54769531 14.98107422 1.59539062 16.27464844 1.64453125 17.60742188 C1.68964844 18.85458984 1.73476562 20.10175781 1.78125 21.38671875 C1.82314453 22.53358154 1.86503906 23.68044434 1.90820312 24.86206055 C1.98763749 27.57740611 2.01779658 30.28379708 2 33 C2.66 33 3.32 33 4 33 C4 34.65 4 36.3 4 38 C4.66 38 5.32 38 6 38 C6 38.66 6 39.32 6 40 C4.125 39.6875 4.125 39.6875 2 39 C-0.52561648 35.21157527 -0.25391573 32.21466671 -0.1953125 27.83203125 C-0.1924826 27.03721848 -0.18965271 26.2424057 -0.18673706 25.42350769 C-0.17554705 22.88635162 -0.15044491 20.34954928 -0.125 17.8125 C-0.11496866 16.09180198 -0.10584308 14.37109841 -0.09765625 12.65039062 C-0.07561161 8.43345757 -0.04109006 4.21678875 0 0 Z " fill="#41E871" transform="translate(140,319)"/>
<path d="M0 0 C3.92314956 7.84629912 3.11795845 16.40213929 3 25 C2.34 25 1.68 25 1 25 C1 25.66 1 26.32 1 27 C0.34 26.67 -0.32 26.34 -1 26 C-0.67 17.42 -0.34 8.84 0 0 Z " fill="#000C08" transform="translate(372,237)"/>
<path d="M0 0 C0.625 1.875 0.625 1.875 1 4 C0.34 4.66 -0.32 5.32 -1 6 C-1.24569272 8.79216791 -1.37363138 11.49240605 -1.4140625 14.2890625 C-1.43342865 15.10748627 -1.4527948 15.92591003 -1.4727478 16.76913452 C-1.53261082 19.38764976 -1.57895532 22.00620881 -1.625 24.625 C-1.66317364 26.39845686 -1.70222501 28.17189505 -1.7421875 29.9453125 C-1.83831771 34.29672375 -1.92232351 38.64822179 -2 43 C-2.33 43 -2.66 43 -3 43 C-3.07401964 37.19761976 -3.12853989 31.39551278 -3.16479492 25.59277344 C-3.17990462 23.61778987 -3.20039328 21.64283996 -3.22631836 19.66796875 C-3.26260619 16.83324894 -3.27970416 13.99897174 -3.29296875 11.1640625 C-3.30845261 10.27756012 -3.32393646 9.39105774 -3.33988953 8.47769165 C-3.34011612 7.65699188 -3.34034271 6.83629211 -3.34057617 5.99072266 C-3.34723801 5.26680328 -3.35389984 4.54288391 -3.36076355 3.79702759 C-3 2 -3 2 0 0 Z " fill="#5DE924" transform="translate(143,144)"/>
<path d="M0 0 C6.6 0 13.2 0 20 0 C19.67 2.64 19.34 5.28 19 8 C18.34 8 17.68 8 17 8 C16.01 6.02 15.02 4.04 14 2 C13.32453125 2.02320313 12.6490625 2.04640625 11.953125 2.0703125 C10.61507812 2.09738281 10.61507812 2.09738281 9.25 2.125 C8.36828125 2.14820313 7.4865625 2.17140625 6.578125 2.1953125 C4 2 4 2 0 0 Z " fill="#2DF098" transform="translate(191,338)"/>
<path d="M0 0 C1.32 0.33 2.64 0.66 4 1 C4 1.99 4 2.98 4 4 C4.66 4 5.32 4 6 4 C6 14.89 6 25.78 6 37 C5.67 37 5.34 37 5 37 C5 26.44 5 15.88 5 5 C3.68 4.67 2.36 4.34 1 4 C0.67 2.68 0.34 1.36 0 0 Z " fill="#3BD785" transform="translate(352,142)"/>
<path d="M0 0 C0.66 0 1.32 0 2 0 C2 0.66 2 1.32 2 2 C4.97 2.495 4.97 2.495 8 3 C8.98120464 6.05263664 8.98120464 7.94736336 8 11 C7.34 11 6.68 11 6 11 C2.60980925 7.44443409 0.44508041 5.04424468 0 0 Z " fill="#1AF896" transform="translate(198,343)"/>
<path d="M0 0 C0.99 0.99 1.98 1.98 3 3 C2.3125 4.9375 2.3125 4.9375 1 7 C-1.625 7.75 -1.625 7.75 -4 8 C-4 6.02 -4 4.04 -4 2 C-2.68 1.34 -1.36 0.68 0 0 Z " fill="#38F750" transform="translate(153,291)"/>
<path d="M0 0 C1.12148437 0.04833984 2.24296875 0.09667969 3.3984375 0.14648438 C5.161875 0.2305957 5.161875 0.2305957 6.9609375 0.31640625 C8.14429688 0.36861328 9.32765625 0.42082031 10.546875 0.47460938 C13.47681311 0.60456631 16.40643423 0.73954153 19.3359375 0.87890625 C19.3359375 1.20890625 19.3359375 1.53890625 19.3359375 1.87890625 C18.59432373 1.89348877 17.85270996 1.90807129 17.08862305 1.9230957 C13.73303119 1.99750082 10.37844256 2.09418631 7.0234375 2.19140625 C5.85619141 2.21396484 4.68894531 2.23652344 3.48632812 2.25976562 C2.36806641 2.29521484 1.24980469 2.33066406 0.09765625 2.3671875 C-1.449823 2.40646362 -1.449823 2.40646362 -3.02856445 2.4465332 C-5.96097283 2.9276166 -6.87142173 3.57024296 -8.6640625 5.87890625 C-8.2890625 3.44140625 -8.2890625 3.44140625 -7.6640625 0.87890625 C-4.96635992 -0.46994504 -3.01132875 -0.13687858 0 0 Z " fill="#59DF2B" transform="translate(169.6640625,162.12109375)"/>
<path d="M0 0 C0.99 0.33 1.98 0.66 3 1 C3.22331199 2.58129029 3.42804644 4.16521089 3.625 5.75 C3.74101562 6.63171875 3.85703125 7.5134375 3.9765625 8.421875 C4.00207817 11.22859878 3.44843844 12.63384866 2 15 C0.2520497 9.75614911 -0.19392201 5.52677733 0 0 Z " fill="#38F663" transform="translate(147,311)"/>
<path d="M0 0 C0.99 0.495 0.99 0.495 2 1 C2 1.66 2 2.32 2 3 C6.98229776 4.91626837 11.72684667 5.5547115 17 6 C17 6.66 17 7.32 17 8 C12.70700357 9.26264601 10.12168689 8.62950412 6 7 C6 6.34 6 5.68 6 5 C4.35 4.67 2.7 4.34 1 4 C0.67 2.68 0.34 1.36 0 0 Z " fill="#06290A" transform="translate(140,355)"/>
<path d="M0 0 C0.33 0 0.66 0 1 0 C1.02698422 2.43757413 1.04683099 4.87484915 1.0625 7.3125 C1.07087891 8.00279297 1.07925781 8.69308594 1.08789062 9.40429688 C1.10307906 12.5483025 1.00193327 14.99420019 0 18 C-0.66 18 -1.32 18 -2 18 C-2.33 18.66 -2.66 19.32 -3 20 C-3.33 18.35 -3.66 16.7 -4 15 C-3.01 14.67 -2.02 14.34 -1 14 C-0.67 9.38 -0.34 4.76 0 0 Z " fill="#4BF928" transform="translate(160,188)"/>
<path d="M0 0 C4.95 0 9.9 0 15 0 C15 0.33 15 0.66 15 1 C14.24074219 1.03738281 13.48148437 1.07476562 12.69921875 1.11328125 C11.70535156 1.17902344 10.71148437 1.24476563 9.6875 1.3125 C8.70136719 1.37050781 7.71523438 1.42851562 6.69921875 1.48828125 C3.75615543 2.04622813 2.81817001 2.68540132 1 5 C0.67 3.35 0.34 1.7 0 0 Z " fill="#19EFB5" transform="translate(344,240)"/>
<path d="M0 0 C1.60875 0.3403125 1.60875 0.3403125 3.25 0.6875 C3.25 1.3475 3.25 2.0075 3.25 2.6875 C-0.38 2.6875 -4.01 2.6875 -7.75 2.6875 C-3.75 -0.3125 -3.75 -0.3125 0 0 Z " fill="#37F662" transform="translate(306.75,146.3125)"/>
<path d="M0 0 C1.32 0 2.64 0 4 0 C4 1.65 4 3.3 4 5 C4.66 5 5.32 5 6 5 C6 5.66 6 6.32 6 7 C4.125 6.6875 4.125 6.6875 2 6 C0 3 0 3 0 0 Z " fill="#38CC67" transform="translate(140,352)"/>
<path d="M0 0 C1.98 0 3.96 0 6 0 C6 1.32 6 2.64 6 4 C5.01 4.33 4.02 4.66 3 5 C1.5 3.625 1.5 3.625 0 2 C0 1.34 0 0.68 0 0 Z " fill="#4DF827" transform="translate(197,142)"/>
<path d="M0 0 C2.31 0.33 4.62 0.66 7 1 C4.36095629 2.41377341 1.92879371 3.37240135 -1 4 C-0.67 2.68 -0.34 1.36 0 0 Z " fill="#0EF0CA" transform="translate(339,290)"/>
<path d="M0 0 C0.99 0.33 1.98 0.66 3 1 C2.67 2.32 2.34 3.64 2 5 C0.35 5.33 -1.3 5.66 -3 6 C-2.01 4.02 -1.02 2.04 0 0 Z " fill="#17E7EF" transform="translate(353,352)"/>
</svg>
